<?xml version="1.0" encoding="UTF-8"?>
<svg version="1.1" xmlns="http://www.w3.org/2000/svg" width="559" height="477">
<path d="M0 0 C8.57365456 0.10080685 15.51574312 1.7140927 23.35620117 5.05834961 C26.21049996 6.25509974 28.6767726 7.00889959 31.71948242 7.46850586 C31.71948242 8.12850586 31.71948242 8.78850586 31.71948242 9.46850586 C33.11166992 9.65413086 33.11166992 9.65413086 34.53198242 9.84350586 C37.71948242 10.46850586 37.71948242 10.46850586 40.71948242 12.46850586 C41.04948242 13.45850586 41.37948242 14.44850586 41.71948242 15.46850586 C43.67575179 16.84004416 45.71681726 17.93890959 47.80932617 19.08959961 C50.05225138 20.70872558 50.51054219 22.01047609 51.71948242 24.46850586 C52.5212793 25.25354492 53.32307617 26.03858398 54.14916992 26.84741211 C62.20770374 35.06515708 65.58933056 48.7114547 65.77807617 59.96069336 C65.140364 71.71087942 61.24995821 80.63336283 52.69995117 88.85522461 C46.48368258 93.91897003 40.55813336 94.96619798 32.71948242 94.46850586 C33.22618965 90.87506839 33.74823169 87.28988944 34.32495117 83.70678711 C35.84707975 73.44008092 36.14872494 64.16986914 31.71948242 54.46850586 C31.05948242 53.80850586 30.39948242 53.14850586 29.71948242 52.46850586 C29.36885742 51.60225586 29.01823242 50.73600586 28.65698242 49.84350586 C23.67348199 41.16256962 16.11750941 37.08811338 6.71948242 34.46850586 C6.05819336 34.27643555 5.3969043 34.08436523 4.71557617 33.88647461 C-5.96707569 31.64959839 -16.08380122 34.71912783 -25.30395508 40.06225586 C-28.22785126 42.1424982 -30.10413631 44.63261511 -32.28051758 47.46850586 C-32.94051758 47.46850586 -33.60051758 47.46850586 -34.28051758 47.46850586 C-34.65176758 48.61319336 -34.65176758 48.61319336 -35.03051758 49.78100586 C-36.28051758 53.46850586 -36.28051758 53.46850586 -37.30395508 55.78881836 C-42.24032597 67.51707544 -41.41771907 78.70550839 -36.79223633 90.42163086 C-34.78870083 94.45976442 -32.41943819 97.2565871 -29.28051758 100.46850586 C-29.28051758 101.12850586 -29.28051758 101.78850586 -29.28051758 102.46850586 C-28.71075195 102.72245117 -28.14098633 102.97639648 -27.55395508 103.23803711 C-25.00183277 104.61934042 -23.09392849 106.24750797 -20.90551758 108.15600586 C-13.61979969 114.21445042 -5.74259026 119.37422991 2.10620117 124.66772461 C7.16730842 128.08187438 12.17601011 131.56368736 17.15698242 135.09350586 C17.82358887 135.56570557 18.49019531 136.03790527 19.17700195 136.52441406 C20.42072017 137.40713981 21.66268609 138.29234151 22.90258789 139.18041992 C24.17336509 140.08133641 25.45461464 140.96757994 26.7434082 141.8425293 C28.43577503 143.00356673 30.08243635 144.2306878 31.71948242 145.46850586 C31.71948242 146.12850586 31.71948242 146.78850586 31.71948242 147.46850586 C32.29698242 147.73663086 32.87448242 148.00475586 33.46948242 148.28100586 C35.77498285 149.49779775 37.74004435 150.77184465 39.71948242 152.46850586 C39.71948242 153.12850586 39.71948242 153.78850586 39.71948242 154.46850586 C40.37948242 154.46850586 41.03948242 154.46850586 41.71948242 154.46850586 C42.93929042 155.91301533 44.15625945 157.36171456 45.30541992 158.86303711 C46.70000601 160.57214026 46.70000601 160.57214026 48.73901367 161.89038086 C51.04608854 163.72876004 51.82417101 165.23125258 53.03198242 167.90600586 C54.8800883 171.85319495 56.95296108 175.47336527 59.28198242 179.15600586 C68.9789635 195.71904107 69.56929856 216.30023029 64.93823242 234.54663086 C59.28265931 253.17101816 47.65041275 268.34772448 30.44995117 277.70288086 C25.19266352 280.16575435 19.65260557 281.88490244 14.12573242 283.63647461 C11.79677487 284.24547845 11.79677487 284.24547845 10.71948242 285.46850586 C-16.25530527 288.83663674 -37.4171711 285.71608005 -59.28051758 269.46850586 C-59.94051758 269.13850586 -60.60051758 268.80850586 -61.28051758 268.46850586 C-61.28051758 267.80850586 -61.28051758 267.14850586 -61.28051758 266.46850586 C-61.91989258 266.36538086 -62.55926758 266.26225586 -63.21801758 266.15600586 C-64.23895508 265.81569336 -64.23895508 265.81569336 -65.28051758 265.46850586 C-65.77551758 263.98350586 -65.77551758 263.98350586 -66.28051758 262.46850586 C-66.94051758 262.13850586 -67.60051758 261.80850586 -68.28051758 261.46850586 C-68.77551758 259.98350586 -68.77551758 259.98350586 -69.28051758 258.46850586 C-69.79614258 257.95288086 -70.31176758 257.43725586 -70.84301758 256.90600586 C-71.31739258 256.43163086 -71.79176758 255.95725586 -72.28051758 255.46850586 C-72.28051758 254.80850586 -72.28051758 254.14850586 -72.28051758 253.46850586 C-72.94051758 253.46850586 -73.60051758 253.46850586 -74.28051758 253.46850586 C-81.04804445 238.38200327 -85.62032486 222.82166566 -80.28051758 206.46850586 C-85.14419289 207.42529445 -89.65948694 208.54604524 -94.28051758 210.34350586 C-108.51936911 215.64817604 -124.7986995 220.04601777 -139.28051758 213.46850586 C-139.95211914 213.1784668 -140.6237207 212.88842773 -141.31567383 212.58959961 C-144.768026 210.89532411 -146.14649439 209.77151481 -147.71801758 206.21850586 C-147.90364258 205.31100586 -148.08926758 204.40350586 -148.28051758 203.46850586 C-145.50213093 201.92829208 -143.28770663 201.17894884 -140.12817383 200.90600586 C-138.96318359 200.79385742 -138.96318359 200.79385742 -137.7746582 200.67944336 C-136.57099609 200.5750293 -136.57099609 200.5750293 -135.34301758 200.46850586 C-130.27561641 200.02679535 -125.96724118 199.56865219 -121.28051758 197.46850586 C-118.95335181 196.78061896 -116.61914613 196.11635259 -114.28051758 195.46850586 C-111.42398694 194.64324065 -108.57115271 193.8054255 -105.71801758 192.96850586 C-104.98905273 192.75581055 -104.26008789 192.54311523 -103.5090332 192.32397461 C-99.4031159 191.11917799 -95.3312462 189.85074501 -91.28051758 188.46850586 C-91.28051758 187.80850586 -91.28051758 187.14850586 -91.28051758 186.46850586 C-90.49354492 186.3002832 -90.49354492 186.3002832 -89.69067383 186.12866211 C-81.16645379 183.95860276 -73.77771348 179.70475822 -66.13647461 175.47412109 C-65.52400879 175.14226807 -64.91154297 174.81041504 -64.28051758 174.46850586 C-63.6048877 174.09604736 -62.92925781 173.72358887 -62.2331543 173.33984375 C-60.28051758 172.46850586 -60.28051758 172.46850586 -57.28051758 172.46850586 C-57.28051758 171.80850586 -57.28051758 171.14850586 -57.28051758 170.46850586 C-56.3859082 170.03280273 -55.49129883 169.59709961 -54.56958008 169.14819336 C-53.34774307 168.54761217 -52.12642495 167.94597464 -50.90551758 167.34350586 C-50.27081543 167.0309082 -49.63611328 166.71831055 -48.98217773 166.39624023 C-44.24247172 164.02937569 -39.77339987 161.38524624 -35.36645508 158.43725586 C-33.28051758 157.46850586 -33.28051758 157.46850586 -31.36645508 157.57006836 C-28.4689502 158.81805735 -26.08649981 160.49751869 -23.53051758 162.34350586 C-22.54567383 163.04217773 -21.56083008 163.74084961 -20.54614258 164.46069336 C-19.79848633 165.12327148 -19.05083008 165.78584961 -18.28051758 166.46850586 C-18.28051758 167.45850586 -18.28051758 168.44850586 -18.28051758 169.46850586 C-20.41486168 171.12921742 -22.52523956 172.61551575 -24.78051758 174.09350586 C-32.55356228 179.41810034 -39.89077252 184.90952564 -42.28051758 194.46850586 C-42.94051758 194.79850586 -43.60051758 195.12850586 -44.28051758 195.46850586 C-48.46310249 204.31628163 -49.03801354 215.95543258 -46.48364258 225.42163086 C-45.54240966 227.5502653 -44.49620885 229.48688455 -43.28051758 231.46850586 C-42.59989258 232.98444336 -42.59989258 232.98444336 -41.90551758 234.53100586 C-38.23183412 241.68211612 -38.23183412 241.68211612 -32.08911133 246.19897461 C-31.49227539 246.28791992 -30.89543945 246.37686523 -30.28051758 246.46850586 C-30.28051758 247.12850586 -30.28051758 247.78850586 -30.28051758 248.46850586 C-26.62062132 249.494645 -22.9535955 250.49060849 -19.28051758 251.46850586 C-18.49418945 251.68120117 -17.70786133 251.89389648 -16.89770508 252.11303711 C-5.37938512 254.98229602 4.57727606 253.49049648 14.96948242 247.78100586 C24.17557479 241.88853046 28.25923028 232.65896554 31.33666992 222.41381836 C33.56194999 211.10576253 30.37929995 199.37887105 24.53198242 189.65600586 C15.16380984 176.10879645 1.30604 167.06009812 -12.25463867 158.15429688 C-18.63643812 153.9484474 -24.84176213 149.52878454 -31.00390625 145.00830078 C-35.33636177 141.83716368 -39.72960072 138.82637306 -44.26049805 135.9440918 C-47.14639675 133.83599756 -49.27880995 131.28150038 -51.53442383 128.53100586 C-53.3367535 126.40207953 -55.26104535 124.51607443 -57.28051758 122.59350586 C-69.43671018 110.48424836 -77.22673028 93.42359613 -77.65551758 76.21850586 C-77.36628947 63.83199781 -74.64191389 52.61116686 -69.28051758 41.46850586 C-68.93504883 40.70280273 -68.58958008 39.93709961 -68.23364258 39.14819336 C-61.79566011 26.13227229 -49.17660403 15.68629423 -36.87426758 8.47631836 C-35.1043171 7.43878626 -35.1043171 7.43878626 -33.28051758 5.46850586 C-31.96051758 5.46850586 -30.64051758 5.46850586 -29.28051758 5.46850586 C-26.87084023 4.87641371 -24.47542142 4.22474211 -22.09301758 3.53100586 C-20.21549805 2.9915332 -20.21549805 2.9915332 -18.30004883 2.44116211 C-12.04185118 0.42526144 -6.93319056 0.06552915 0 0 Z " fill="#834576" transform="translate(257.280517578125,86.531494140625)"/>
<path d="M0 0 C1.3921875 0.0928125 1.3921875 0.0928125 2.8125 0.1875 C2.4825 1.1775 2.1525 2.1675 1.8125 3.1875 C2.8025 3.1875 3.7925 3.1875 4.8125 3.1875 C6.00877721 7.37447025 5.51074171 9.25472971 3.8125 13.1875 C2.51206655 18.00208185 1.6930968 22.88786472 0.9375 27.8125 C-0.23870845 35.08276483 -2.20742114 42.10170054 -4.1875 49.1875 C-4.77197031 51.33302393 -5.35543868 53.47882128 -5.9375 55.625 C-6.35371529 57.14595693 -6.77018883 58.66684339 -7.1875 60.1875 C-10.17246624 60.69312578 -13.1560675 61.18294456 -16.15234375 61.6171875 C-23.42319694 62.70638233 -28.88508459 64.33814737 -35.3125 67.9375 C-38.58463049 69.36016543 -39.86669987 69.35426761 -43.1875 68.1875 C-44.1775 67.5275 -45.1675 66.8675 -46.1875 66.1875 C-44.1802092 69.1984362 -43.34865776 69.81766497 -40.1875 71.1875 C-40.65800781 71.92355469 -41.12851562 72.65960938 -41.61328125 73.41796875 C-42.23589844 74.39378906 -42.85851562 75.36960937 -43.5 76.375 C-44.11488281 77.33792969 -44.72976563 78.30085938 -45.36328125 79.29296875 C-46.48960701 81.08013661 -47.57907686 82.89190687 -48.60546875 84.73828125 C-50.47981122 87.64004108 -52.73850603 89.74906204 -55.1875 92.1875 C-57.42736618 94.9022469 -59.55329024 97.70182052 -61.6875 100.5 C-68.37905515 109.18208666 -75.18371718 117.75504957 -82.1875 126.1875 C-82.62465332 126.71939941 -83.06180664 127.25129883 -83.51220703 127.79931641 C-91.79780886 137.81828047 -91.79780886 137.81828047 -98.1875 139.1875 C-102.90585133 138.96243384 -106.16348138 138.15900485 -109.625 134.875 C-112.45748689 130.00312256 -113.47076373 126.01364848 -113.8125 120.375 C-113.88726562 119.21355469 -113.96203125 118.05210937 -114.0390625 116.85546875 C-114.08804688 115.97503906 -114.13703125 115.09460938 -114.1875 114.1875 C-114.71537109 114.88141846 -114.71537109 114.88141846 -115.25390625 115.58935547 C-140.73542714 149.06295911 -140.73542714 149.06295911 -150.1875 153.1875 C-154.06037134 153.65491551 -156.36053626 153.54459798 -159.9375 152 C-162.57728907 149.87350325 -163.84067388 148.30646575 -165.1875 145.1875 C-165.9230131 131.66296204 -159.09090465 118.34530197 -154.16601562 106.04296875 C-150.9517892 97.81065842 -148.77075845 89.87755267 -147.1875 81.1875 C-159.29827924 84.6739948 -170.66677263 89.19484917 -182.1730957 94.32714844 C-184.1875 95.1875 -184.1875 95.1875 -187.1875 96.1875 C-187.5175 96.8475 -187.8475 97.5075 -188.1875 98.1875 C-190.50729381 99.21851947 -192.84179915 100.21686517 -195.1875 101.1875 C-196.6725 102.1775 -196.6725 102.1775 -198.1875 103.1875 C-202.30859426 102.98496759 -204.90798161 100.18566436 -207.9375 97.625 C-208.92234375 96.79871094 -209.9071875 95.97242188 -210.921875 95.12109375 C-211.66953125 94.48300781 -212.4171875 93.84492188 -213.1875 93.1875 C-212.82245976 90.57856689 -212.47079494 89.44014336 -210.47485352 87.66015625 C-204.8593586 84.09468427 -199.15216777 80.99980347 -193.125 78.1875 C-192.21105469 77.75743652 -191.29710937 77.32737305 -190.35546875 76.88427734 C-182.43856089 73.20916247 -174.43809549 70.02336526 -166.1875 67.1875 C-165.05957031 66.775 -163.93164062 66.3625 -162.76953125 65.9375 C-154.01017228 62.92352702 -144.47201018 60.96544564 -135.625 64.75 C-131.80805209 67.09020062 -129.40606965 69.85396167 -128.1875 74.1875 C-126.38800502 87.70245709 -131.33665223 100.77655437 -136.1875 113.1875 C-135.79820312 112.61644531 -135.40890625 112.04539062 -135.0078125 111.45703125 C-117.47405545 86.04520363 -117.47405545 86.04520363 -107.1875 79.1875 C-106.5275 79.1875 -105.8675 79.1875 -105.1875 79.1875 C-105.1875 79.8475 -105.1875 80.5075 -105.1875 81.1875 C-101.7225 80.6925 -101.7225 80.6925 -98.1875 80.1875 C-97.8575 81.5075 -97.5275 82.8275 -97.1875 84.1875 C-96.5275 84.1875 -95.8675 84.1875 -95.1875 84.1875 C-93.37722128 90.97949994 -93.04993754 96.76377362 -93.5625 103.75 C-93.64757812 105.11995117 -93.64757812 105.11995117 -93.734375 106.51757812 C-93.8741217 108.74187982 -94.02532032 110.96474097 -94.1875 113.1875 C-83.85047452 99.93180546 -83.85047452 99.93180546 -74.1875 86.1875 C-72.40477287 83.67547541 -70.471237 81.37063008 -68.4375 79.0625 C-65.27522091 75.42037259 -62.58346146 71.52185569 -59.8984375 67.51953125 C-58.15856582 65.14806232 -56.38686821 63.14000035 -54.1875 61.1875 C-53.5275 61.1875 -52.8675 61.1875 -52.1875 61.1875 C-52.043125 59.90875 -51.89875 58.63 -51.75 57.3125 C-51.48107254 54.93057106 -51.26523654 53.34297309 -50.1875 51.1875 C-49.03105333 42.11581833 -49.2369497 34.10430138 -51.1875 25.1875 C-46.87980769 21.24903846 -46.87980769 21.24903846 -43.375 20.9375 C-42.653125 21.02 -41.93125 21.1025 -41.1875 21.1875 C-40.8575 20.5275 -40.5275 19.8675 -40.1875 19.1875 C-38.51036185 18.44955921 -36.83000908 17.71790349 -35.1328125 17.02734375 C-32.00754634 15.67808225 -29.12278225 13.90069976 -26.1875 12.1875 C-20.28134076 8.77664816 -14.6736717 5.71225596 -8.0625 3.92578125 C-6.08123697 3.29170171 -6.08123697 3.29170171 -4.63671875 1.6171875 C-3.1875 0.1875 -3.1875 0.1875 0 0 Z M-1.1875 5.1875 C-0.8575 5.8475 -0.5275 6.5075 -0.1875 7.1875 C0.1425 6.5275 0.4725 5.8675 0.8125 5.1875 C0.1525 5.1875 -0.5075 5.1875 -1.1875 5.1875 Z M-2.1875 7.1875 C-1.1875 9.1875 -1.1875 9.1875 -1.1875 9.1875 Z M-9.1875 16.1875 C-9.1875 19.1875 -9.1875 19.1875 -9.1875 19.1875 Z M-12.1875 20.1875 C-12.5175 20.8475 -12.8475 21.5075 -13.1875 22.1875 C-12.1975 21.8575 -11.2075 21.5275 -10.1875 21.1875 C-10.8475 20.8575 -11.5075 20.5275 -12.1875 20.1875 Z M-28.1875 35.1875 C-29.24499557 38.27119887 -29.24499557 38.27119887 -29.1875 41.1875 C-27.7025 42.1775 -27.7025 42.1775 -26.1875 43.1875 C-23.51604463 42.38588209 -23.51604463 42.38588209 -21.1875 41.1875 C-20.8575 38.2175 -20.5275 35.2475 -20.1875 32.1875 C-23.16340156 32.1875 -25.66124154 33.83414725 -28.1875 35.1875 Z M-48.1875 64.1875 C-47.1875 66.1875 -47.1875 66.1875 -47.1875 66.1875 Z " fill="#6C5D9B" transform="translate(495.1875,121.8125)"/>
<path d="M0 0 C2.89750488 1.24798899 5.27995527 2.92745033 7.8359375 4.7734375 C8.82078125 5.47210938 9.805625 6.17078125 10.8203125 6.890625 C11.56796875 7.55320313 12.315625 8.21578125 13.0859375 8.8984375 C13.0859375 9.8884375 13.0859375 10.8784375 13.0859375 11.8984375 C10.9515934 13.55914906 8.84121552 15.04544739 6.5859375 16.5234375 C-1.1871072 21.84803198 -8.52431744 27.33945728 -10.9140625 36.8984375 C-11.9040625 37.3934375 -11.9040625 37.3934375 -12.9140625 37.8984375 C-17.09664741 46.74621327 -17.67155846 58.38536422 -15.1171875 67.8515625 C-14.17595458 69.98019694 -13.12975378 71.91681619 -11.9140625 73.8984375 C-11.4603125 74.9090625 -11.0065625 75.9196875 -10.5390625 76.9609375 C-6.86537904 84.11204776 -6.86537904 84.11204776 -0.72265625 88.62890625 C0.17259766 88.76232422 0.17259766 88.76232422 1.0859375 88.8984375 C1.0859375 89.5584375 1.0859375 90.2184375 1.0859375 90.8984375 C4.74583375 91.92457664 8.41285958 92.92054013 12.0859375 93.8984375 C12.87226563 94.11113281 13.65859375 94.32382812 14.46875 94.54296875 C23.98122054 96.91256267 31.91464581 96.19272331 41.0859375 92.8984375 C42.189375 92.53492188 43.2928125 92.17140625 44.4296875 91.796875 C51.97235031 89.16373821 56.51323085 87.20464496 60.0859375 79.8359375 C61.55369343 76.99216039 63.78106835 75.08199774 66.0859375 72.8984375 C66.34626639 85.39422419 66.34626639 85.39422419 64.09423828 89.86889648 C63.01979276 92.03157581 62.68848286 93.80624027 62.328125 96.18359375 C61.2336917 101.39015215 58.75930527 104.48549046 55.2109375 108.3359375 C54.68113281 108.94630859 54.15132812 109.55667969 53.60546875 110.18554688 C50.92217666 113.20508276 48.78563096 115.19128189 45.0859375 116.8984375 C43.83853275 117.70421448 42.60844498 118.53752111 41.3984375 119.3984375 C40.79644531 119.82125 40.19445312 120.2440625 39.57421875 120.6796875 C37.94098036 121.84779784 37.94098036 121.84779784 37.0859375 123.8984375 C43.12339123 122.8630351 43.12339123 122.8630351 48.5859375 120.2734375 C51.85317208 118.47645848 54.2787806 118.84406325 57.93359375 118.99609375 C60.89177581 118.86187496 62.69877622 117.56221657 65.0859375 115.8984375 C65.7459375 116.2284375 66.4059375 116.5584375 67.0859375 116.8984375 C61.03458878 120.75227747 54.85529027 123.15332643 48.05249023 125.28588867 C44.80821453 126.1119845 44.80821453 126.1119845 42.0859375 127.8984375 C15.1111498 131.26656838 -6.05071602 128.14601169 -27.9140625 111.8984375 C-28.5740625 111.5684375 -29.2340625 111.2384375 -29.9140625 110.8984375 C-29.9140625 110.2384375 -29.9140625 109.5784375 -29.9140625 108.8984375 C-30.5534375 108.7953125 -31.1928125 108.6921875 -31.8515625 108.5859375 C-32.5321875 108.3590625 -33.2128125 108.1321875 -33.9140625 107.8984375 C-34.2440625 106.9084375 -34.5740625 105.9184375 -34.9140625 104.8984375 C-35.5740625 104.5684375 -36.2340625 104.2384375 -36.9140625 103.8984375 C-37.2440625 102.9084375 -37.5740625 101.9184375 -37.9140625 100.8984375 C-38.4296875 100.3828125 -38.9453125 99.8671875 -39.4765625 99.3359375 C-39.9509375 98.8615625 -40.4253125 98.3871875 -40.9140625 97.8984375 C-40.9140625 97.2384375 -40.9140625 96.5784375 -40.9140625 95.8984375 C-41.5740625 95.8984375 -42.2340625 95.8984375 -42.9140625 95.8984375 C-49.68158937 80.81193491 -54.25386978 65.2515973 -48.9140625 48.8984375 C-53.77773781 49.85522609 -58.29303186 50.97597688 -62.9140625 52.7734375 C-77.15291403 58.07810768 -93.43224442 62.47594941 -107.9140625 55.8984375 C-108.58566406 55.60839844 -109.25726563 55.31835938 -109.94921875 55.01953125 C-113.40157092 53.32525575 -114.78003931 52.20144645 -116.3515625 48.6484375 C-116.5371875 47.7409375 -116.7228125 46.8334375 -116.9140625 45.8984375 C-114.13567585 44.35822372 -111.92125155 43.60888048 -108.76171875 43.3359375 C-107.98505859 43.26117188 -107.20839844 43.18640625 -106.40820312 43.109375 C-105.20454102 43.00496094 -105.20454102 43.00496094 -103.9765625 42.8984375 C-98.90916133 42.45672699 -94.6007861 41.99858383 -89.9140625 39.8984375 C-87.58689673 39.2105506 -85.25269105 38.54628423 -82.9140625 37.8984375 C-80.05753186 37.07317229 -77.20469763 36.23535714 -74.3515625 35.3984375 C-73.62259766 35.18574219 -72.89363281 34.97304688 -72.14257812 34.75390625 C-68.03666083 33.54910963 -63.96479112 32.28067665 -59.9140625 30.8984375 C-59.9140625 30.2384375 -59.9140625 29.5784375 -59.9140625 28.8984375 C-59.38941406 28.78628906 -58.86476562 28.67414063 -58.32421875 28.55859375 C-49.79999871 26.3885344 -42.4112584 22.13468986 -34.77001953 17.90405273 C-34.15755371 17.57219971 -33.54508789 17.24034668 -32.9140625 16.8984375 C-31.90061768 16.33974976 -31.90061768 16.33974976 -30.86669922 15.76977539 C-28.9140625 14.8984375 -28.9140625 14.8984375 -25.9140625 14.8984375 C-25.9140625 14.2384375 -25.9140625 13.5784375 -25.9140625 12.8984375 C-24.57214844 12.24488281 -24.57214844 12.24488281 -23.203125 11.578125 C-21.98128799 10.97754381 -20.75996987 10.37590628 -19.5390625 9.7734375 C-18.90436035 9.46083984 -18.2696582 9.14824219 -17.61572266 8.82617188 C-12.87601664 6.45930733 -8.4069448 3.81517788 -4 0.8671875 C-1.9140625 -0.1015625 -1.9140625 -0.1015625 0 0 Z " fill="#CC5E3F" transform="translate(225.9140625,244.1015625)"/>
<path d="M0 0 C8.57365456 0.10080685 15.51574312 1.7140927 23.35620117 5.05834961 C26.21049996 6.25509974 28.6767726 7.00889959 31.71948242 7.46850586 C31.71948242 8.12850586 31.71948242 8.78850586 31.71948242 9.46850586 C32.64760742 9.59225586 33.57573242 9.71600586 34.53198242 9.84350586 C37.71948242 10.46850586 37.71948242 10.46850586 40.71948242 12.46850586 C41.21448242 13.95350586 41.21448242 13.95350586 41.71948242 15.46850586 C43.67575179 16.84004416 45.71681726 17.93890959 47.80932617 19.08959961 C50.05225138 20.70872558 50.51054219 22.01047609 51.71948242 24.46850586 C52.5212793 25.25354492 53.32307617 26.03858398 54.14916992 26.84741211 C62.20770374 35.06515708 65.58933056 48.7114547 65.77807617 59.96069336 C65.140364 71.71087942 61.24995821 80.63336283 52.69995117 88.85522461 C46.48368258 93.91897003 40.55813336 94.96619798 32.71948242 94.46850586 C33.22618965 90.87506839 33.74823169 87.28988944 34.32495117 83.70678711 C35.84707975 73.44008092 36.14872494 64.16986914 31.71948242 54.46850586 C31.05948242 53.80850586 30.39948242 53.14850586 29.71948242 52.46850586 C29.36885742 51.60225586 29.01823242 50.73600586 28.65698242 49.84350586 C23.67348199 41.16256962 16.11750941 37.08811338 6.71948242 34.46850586 C6.05819336 34.27643555 5.3969043 34.08436523 4.71557617 33.88647461 C-5.96707569 31.64959839 -16.08380122 34.71912783 -25.30395508 40.06225586 C-28.22785126 42.1424982 -30.10413631 44.63261511 -32.28051758 47.46850586 C-32.94051758 47.46850586 -33.60051758 47.46850586 -34.28051758 47.46850586 C-34.54864258 48.31413086 -34.81676758 49.15975586 -35.09301758 50.03100586 C-36.32837708 53.60704653 -37.75750557 57.00711494 -39.28051758 60.46850586 C-39.94051758 59.47850586 -40.60051758 58.48850586 -41.28051758 57.46850586 C-42.27051758 57.46850586 -43.26051758 57.46850586 -44.28051758 57.46850586 C-44.61051758 55.15850586 -44.94051758 52.84850586 -45.28051758 50.46850586 C-44.29051758 50.79850586 -43.30051758 51.12850586 -42.28051758 51.46850586 C-42.28051758 50.80850586 -42.28051758 50.14850586 -42.28051758 49.46850586 C-42.94051758 49.46850586 -43.60051758 49.46850586 -44.28051758 49.46850586 C-43.30151818 43.64058003 -42.20389607 38.67974579 -39.28051758 33.46850586 C-38.95051758 32.47850586 -38.62051758 31.48850586 -38.28051758 30.46850586 C-37.29051758 30.46850586 -36.30051758 30.46850586 -35.28051758 30.46850586 C-35.19801758 29.89100586 -35.11551758 29.31350586 -35.03051758 28.71850586 C-34.06253971 25.81457226 -32.59357474 24.43109982 -30.28051758 22.46850586 C-29.62051758 22.46850586 -28.96051758 22.46850586 -28.28051758 22.46850586 C-28.28051758 21.47850586 -28.28051758 20.48850586 -28.28051758 19.46850586 C-24.94718424 16.46850586 -24.94718424 16.46850586 -22.28051758 16.46850586 C-22.28051758 15.80850586 -22.28051758 15.14850586 -22.28051758 14.46850586 C-15.53051758 10.46850586 -15.53051758 10.46850586 -13.28051758 10.46850586 C-12.95051758 9.47850586 -12.62051758 8.48850586 -12.28051758 7.46850586 C-11.29051758 7.46850586 -10.30051758 7.46850586 -9.28051758 7.46850586 C-11.07751039 5.20254049 -11.07751039 5.20254049 -13.55786133 5.45678711 C-14.43571289 5.5637793 -15.31356445 5.67077148 -16.21801758 5.78100586 C-17.09329102 5.88026367 -17.96856445 5.97952148 -18.87036133 6.08178711 C-21.41495408 6.42335325 -21.41495408 6.42335325 -24.28051758 7.46850586 C-24.61051758 8.45850586 -24.94051758 9.44850586 -25.28051758 10.46850586 C-26.27051758 10.13850586 -27.26051758 9.80850586 -28.28051758 9.46850586 C-32.15974642 10.36904113 -34.9548561 11.2513982 -38.28051758 13.46850586 C-39.27051758 12.80850586 -40.26051758 12.14850586 -41.28051758 11.46850586 C-40.33176758 10.84975586 -39.38301758 10.23100586 -38.40551758 9.59350586 C-35.33606649 7.64879617 -35.33606649 7.64879617 -33.28051758 5.46850586 C-31.96051758 5.46850586 -30.64051758 5.46850586 -29.28051758 5.46850586 C-26.87084023 4.87641371 -24.47542142 4.22474211 -22.09301758 3.53100586 C-20.84133789 3.17135742 -19.5896582 2.81170898 -18.30004883 2.44116211 C-12.04185118 0.42526144 -6.93319056 0.06552915 0 0 Z M-8.28051758 3.46850586 C-8.61051758 4.12850586 -8.94051758 4.78850586 -9.28051758 5.46850586 C-8.29051758 5.46850586 -7.30051758 5.46850586 -6.28051758 5.46850586 C-6.28051758 4.80850586 -6.28051758 4.14850586 -6.28051758 3.46850586 C-6.94051758 3.46850586 -7.60051758 3.46850586 -8.28051758 3.46850586 Z " fill="#565D9D" transform="translate(257.280517578125,86.531494140625)"/>
<path d="M0 0 C0.928125 0.061875 1.85625 0.12375 2.8125 0.1875 C2.4825 1.1775 2.1525 2.1675 1.8125 3.1875 C2.8025 3.1875 3.7925 3.1875 4.8125 3.1875 C6.00877721 7.37447025 5.51074171 9.25472971 3.8125 13.1875 C2.51206655 18.00208185 1.6930968 22.88786472 0.9375 27.8125 C-0.23870845 35.08276483 -2.20742114 42.10170054 -4.1875 49.1875 C-4.77197031 51.33302393 -5.35543868 53.47882128 -5.9375 55.625 C-6.35371529 57.14595693 -6.77018883 58.66684339 -7.1875 60.1875 C-10.17246624 60.69312578 -13.1560675 61.18294456 -16.15234375 61.6171875 C-23.42319694 62.70638233 -28.88508459 64.33814737 -35.3125 67.9375 C-38.58463049 69.36016543 -39.86669987 69.35426761 -43.1875 68.1875 C-44.1775 67.5275 -45.1675 66.8675 -46.1875 66.1875 C-44.1802092 69.1984362 -43.34865776 69.81766497 -40.1875 71.1875 C-40.65800781 71.92355469 -41.12851562 72.65960938 -41.61328125 73.41796875 C-42.23589844 74.39378906 -42.85851562 75.36960937 -43.5 76.375 C-44.11488281 77.33792969 -44.72976563 78.30085938 -45.36328125 79.29296875 C-46.53534485 81.15270993 -47.68112427 83.02942364 -48.79296875 84.92578125 C-50.1875 87.1875 -50.1875 87.1875 -52.1875 89.1875 C-53.0625 87.1875 -53.0625 87.1875 -53.1875 84.1875 C-51.7842508 82.04592584 -50.23151317 80.16661283 -48.53515625 78.25 C-46.84827513 75.66833847 -46.70454589 74.21467628 -47.1875 71.1875 C-48.1775 70.5275 -49.1675 69.8675 -50.1875 69.1875 C-51.21763277 67.53928756 -52.21864628 65.87246298 -53.1875 64.1875 C-53.8475 63.5275 -54.5075 62.8675 -55.1875 62.1875 C-53.7025 61.6925 -53.7025 61.6925 -52.1875 61.1875 C-52.043125 59.90875 -51.89875 58.63 -51.75 57.3125 C-51.48107254 54.93057106 -51.26523654 53.34297309 -50.1875 51.1875 C-49.03105333 42.11581833 -49.2369497 34.10430138 -51.1875 25.1875 C-46.87980769 21.24903846 -46.87980769 21.24903846 -43.375 20.9375 C-42.653125 21.02 -41.93125 21.1025 -41.1875 21.1875 C-40.8575 20.5275 -40.5275 19.8675 -40.1875 19.1875 C-38.51036185 18.44955921 -36.83000908 17.71790349 -35.1328125 17.02734375 C-32.00754634 15.67808225 -29.12278225 13.90069976 -26.1875 12.1875 C-20.28134076 8.77664816 -14.6736717 5.71225596 -8.0625 3.92578125 C-6.08123697 3.29170171 -6.08123697 3.29170171 -4.63671875 1.6171875 C-3.1875 0.1875 -3.1875 0.1875 0 0 Z M-1.1875 5.1875 C-0.8575 5.8475 -0.5275 6.5075 -0.1875 7.1875 C0.1425 6.5275 0.4725 5.8675 0.8125 5.1875 C0.1525 5.1875 -0.5075 5.1875 -1.1875 5.1875 Z M-2.1875 7.1875 C-1.1875 9.1875 -1.1875 9.1875 -1.1875 9.1875 Z M-9.1875 16.1875 C-9.1875 19.1875 -9.1875 19.1875 -9.1875 19.1875 Z M-12.1875 20.1875 C-12.5175 20.8475 -12.8475 21.5075 -13.1875 22.1875 C-12.1975 21.8575 -11.2075 21.5275 -10.1875 21.1875 C-10.8475 20.8575 -11.5075 20.5275 -12.1875 20.1875 Z M-28.1875 35.1875 C-29.24499557 38.27119887 -29.24499557 38.27119887 -29.1875 41.1875 C-27.7025 42.1775 -27.7025 42.1775 -26.1875 43.1875 C-23.51604463 42.38588209 -23.51604463 42.38588209 -21.1875 41.1875 C-20.8575 38.2175 -20.5275 35.2475 -20.1875 32.1875 C-23.16340156 32.1875 -25.66124154 33.83414725 -28.1875 35.1875 Z M-48.1875 64.1875 C-47.1875 66.1875 -47.1875 66.1875 -47.1875 66.1875 Z " fill="#4B82BD" transform="translate(495.1875,121.8125)"/>
<path d="M0 0 C0.99 0.33 1.98 0.66 3 1 C-12.88745001 9.22556545 -28.6253053 15.64545083 -46 20 C-46.98226562 20.24878906 -47.96453125 20.49757813 -48.9765625 20.75390625 C-55.00150153 22.12147178 -60.83909485 22.21082945 -67 22 C-64.64703279 27.29417622 -61.10960057 28.89847073 -56 31 C-45.19252065 34.60249312 -33.4965268 31.10130706 -23 28 C-21.80503906 27.65324219 -20.61007813 27.30648438 -19.37890625 26.94921875 C-14.61723692 25.52347036 -9.93593094 24.01363071 -5.3125 22.1875 C-4.219375 21.795625 -3.12625 21.40375 -2 21 C-1.34 21.33 -0.68 21.66 0 22 C-0.33 23.98 -0.66 25.96 -1 28 C-1.495 26.515 -1.495 26.515 -2 25 C-6.86367531 25.95678859 -11.37896936 27.07753938 -16 28.875 C-30.23885153 34.17967018 -46.51818192 38.57751191 -61 32 C-61.67160156 31.70996094 -62.34320313 31.41992188 -63.03515625 31.12109375 C-66.48750842 29.42681825 -67.86597681 28.30300895 -69.4375 24.75 C-69.623125 23.8425 -69.80875 22.935 -70 22 C-67.22161335 20.45978622 -65.00718905 19.71044298 -61.84765625 19.4375 C-61.07099609 19.36273438 -60.29433594 19.28796875 -59.49414062 19.2109375 C-58.69169922 19.14132812 -57.88925781 19.07171875 -57.0625 19 C-51.99509883 18.55828949 -47.6867236 18.10014633 -43 16 C-40.67283423 15.3121131 -38.33862855 14.64784673 -36 14 C-33.14346936 13.17473479 -30.29063513 12.33691964 -27.4375 11.5 C-26.34405273 11.18095703 -26.34405273 11.18095703 -25.22851562 10.85546875 C-21.12259833 9.65067213 -17.05072862 8.38223915 -13 7 C-13 6.34 -13 5.68 -13 5 C-12.31292969 4.80664062 -11.62585938 4.61328125 -10.91796875 4.4140625 C-10.01691406 4.15367187 -9.11585938 3.89328125 -8.1875 3.625 C-7.29417969 3.36976563 -6.40085938 3.11453125 -5.48046875 2.8515625 C-2.79532104 2.04733339 -2.79532104 2.04733339 0 0 Z " fill="#FBEBDA" transform="translate(179,268)"/>
<path d="M0 0 C-0.33 0.99 -0.66 1.98 -1 3 C-0.01 3 0.98 3 2 3 C3.19627721 7.18697025 2.69824171 9.06722971 1 13 C-0.30043345 17.81458185 -1.1194032 22.70036472 -1.875 27.625 C-3.05120845 34.89526483 -5.01992114 41.91420054 -7 49 C-7.58447031 51.14552393 -8.16793868 53.29132128 -8.75 55.4375 C-9.16621529 56.95845693 -9.58268883 58.47934339 -10 60 C-13.0703125 60.51171875 -16.140625 61.0234375 -19.2109375 61.53515625 C-20.25507813 61.70917969 -21.29921875 61.88320312 -22.375 62.0625 C-25.1875 62.53125 -25.1875 62.53125 -28 63 C-28 62.34 -28 61.68 -28 61 C-22.21642935 58.98832325 -17.09781001 58.77915376 -11 59 C-10.85304688 57.87078125 -10.85304688 57.87078125 -10.703125 56.71875 C-9.69893487 49.58553735 -8.26165971 42.69992256 -6.46411133 35.73657227 C-5.11689158 30.51570245 -4.00302676 25.29504827 -3 20 C-2.4632159 17.2906863 -1.91885563 14.58290176 -1.375 11.875 C-1.11185875 10.55991992 -0.84882795 9.24481774 -0.5859375 7.9296875 C-0.39257812 6.96289062 -0.19921875 5.99609375 0 5 C-5.13386722 11.45712195 -5.13386722 11.45712195 -8.125 19 C-8.558125 20.485 -8.558125 20.485 -9 22 C-9.75410156 22.28617188 -10.50820313 22.57234375 -11.28515625 22.8671875 C-14.73530808 24.3068192 -16.07268045 26.16388262 -18.3125 29.125 C-19.00988281 30.03507812 -19.70726562 30.94515625 -20.42578125 31.8828125 C-20.94527344 32.58148438 -21.46476562 33.28015625 -22 34 C-22.99 33.67 -23.98 33.34 -25 33 C-23.58012579 29.95101603 -21.89448239 27.35629733 -19.8828125 24.6640625 C-19.27566406 23.84679687 -18.66851562 23.02953125 -18.04296875 22.1875 C-17.41003906 21.341875 -16.77710938 20.49625 -16.125 19.625 C-12.29371843 14.49029274 -8.48562153 9.37731563 -5 4 C-6.32 3.67 -7.64 3.34 -9 3 C-6.38997624 -0.48003168 -4.1689578 -0.27793052 0 0 Z M-4 5 C-3.67 5.66 -3.34 6.32 -3 7 C-2.67 6.34 -2.34 5.68 -2 5 C-2.66 5 -3.32 5 -4 5 Z M-5 7 C-4 9 -4 9 -4 9 Z M-12 16 C-12 19 -12 19 -12 19 Z M-15 20 C-15.33 20.66 -15.66 21.32 -16 22 C-15.01 21.67 -14.02 21.34 -13 21 C-13.66 20.67 -14.32 20.34 -15 20 Z " fill="#D6EAF4" transform="translate(498,122)"/>
<path d="M0 0 C0.33 0 0.66 0 1 0 C1.03738281 1.31613281 1.07476562 2.63226563 1.11328125 3.98828125 C1.43819681 13.34050825 1.76717372 22.1244224 5 31 C5.36351562 32.19882812 5.36351562 32.19882812 5.734375 33.421875 C10.74701244 48.2706312 23.18870647 59.54091323 36.625 66.8125 C56.26850552 75.93421423 77.9709735 76.09506421 99 72 C94.32995686 76.67004314 88.48475263 76.44802614 82.25 76.6875 C81.31841064 76.72439941 80.38682129 76.76129883 79.42700195 76.79931641 C56.29397552 77.56929851 40.74253245 73.92836576 22 60 C21.34 59.67 20.68 59.34 20 59 C20 58.34 20 57.68 20 57 C19.360625 56.896875 18.72125 56.79375 18.0625 56.6875 C17.381875 56.460625 16.70125 56.23375 16 56 C15.67 55.01 15.34 54.02 15 53 C14.34 52.67 13.68 52.34 13 52 C12.505 50.515 12.505 50.515 12 49 C11.484375 48.484375 10.96875 47.96875 10.4375 47.4375 C9.963125 46.963125 9.48875 46.48875 9 46 C9 45.34 9 44.68 9 44 C8.34 44 7.68 44 7 44 C0.65230514 29.8494075 -3.65908724 15.55112079 0 0 Z " fill="#FAE5D2" transform="translate(176,296)"/>
<path d="M0 0 C2.12434674 3.18652011 2.28528368 4.30687928 2.5 8 C2.76852156 11.93487365 3.32881692 15.54422647 4.25 19.375 C5.55979088 25.93344564 3.86497813 31.69316536 2 38 C1.67 38 1.34 38 1 38 C1 34.37 1 30.74 1 27 C-2.48345535 30.62780029 -2.48345535 30.62780029 -4.5 35.0625 C-5.35280177 38.36710684 -7.42420924 39.87217285 -10 42 C-12.33969917 42.94459904 -14.51753011 43.46456532 -17 44 C-16.29875 43.360625 -15.5975 42.72125 -14.875 42.0625 C-5.51416884 32.62211504 -1.14080168 20.8014344 -0.4375 7.75 C-0.39431641 7.00492187 -0.35113281 6.25984375 -0.30664062 5.4921875 C-0.20103275 3.661651 -0.10005799 1.83084824 0 0 Z " fill="#975E77" transform="translate(290,291)"/>
<path d="M0 0 C0 0.99 0 1.98 0 3 C-0.33 3.33 -0.66 3.66 -1 4 C-1.02649047 7.52701742 -0.97113755 11.04108682 -0.87304688 14.56640625 C-0.81002361 18.8594025 -1.00071227 22.07982797 -3 26 C-3.66 26 -4.32 26 -5 26 C-4.835 26.78375 -4.67 27.5675 -4.5 28.375 C-3.87039153 32.93966142 -3.91819473 37.40072601 -4 42 C-4.66 42 -5.32 42 -6 42 C-6 39.36 -6 36.72 -6 34 C-6.66 33.67 -7.32 33.34 -8 33 C-8.4140625 30.49609375 -8.4140625 30.49609375 -8.625 27.4375 C-8.69976562 26.42558594 -8.77453125 25.41367188 -8.8515625 24.37109375 C-8.92503906 23.19740234 -8.92503906 23.19740234 -9 22 C-9.66 23.98 -10.32 25.96 -11 28 C-11.33 28 -11.66 28 -12 28 C-11.16374945 18.38311863 -6.91463946 6.91463946 0 0 Z " fill="#87467F" transform="translate(195,117)"/>
<path d="M0 0 C1.09828125 -0.01224609 2.1965625 -0.02449219 3.328125 -0.03710938 C4.3903125 -0.03904297 5.4525 -0.04097656 6.546875 -0.04296875 C8.00625488 -0.04913208 8.00625488 -0.04913208 9.49511719 -0.05541992 C12.42082294 0.20256282 14.5936027 0.96610183 17.25 2.1875 C17.25 2.5175 17.25 2.8475 17.25 3.1875 C16.39341797 3.17009766 16.39341797 3.17009766 15.51953125 3.15234375 C7.11355238 3.0587955 -1.5794349 3.05677769 -9.75 5.1875 C-12.04020451 5.47327942 -14.33128003 5.68927349 -16.62890625 5.90625 C-18.93416348 6.1440083 -18.93416348 6.1440083 -21.75 7.1875 C-22.08 8.1775 -22.41 9.1675 -22.75 10.1875 C-23.74 9.8575 -24.73 9.5275 -25.75 9.1875 C-29.62922884 10.08803527 -32.42433852 10.97039234 -35.75 13.1875 C-36.74 12.5275 -37.73 11.8675 -38.75 11.1875 C-37.80125 10.56875 -36.8525 9.95 -35.875 9.3125 C-32.80554891 7.36779031 -32.80554891 7.36779031 -30.75 5.1875 C-29.43 5.1875 -28.11 5.1875 -26.75 5.1875 C-24.34032265 4.59540785 -21.94490384 3.94373625 -19.5625 3.25 C-18.31082031 2.89035156 -17.05914062 2.53070313 -15.76953125 2.16015625 C-10.21184597 0.36990575 -6.19792763 0.00358676 0 0 Z " fill="#575C90" transform="translate(254.75,86.8125)"/>
<path d="M0 0 C-1.53093488 4.67199091 -4.10757395 8.02170005 -7.125 11.8125 C-7.82689453 12.7087207 -7.82689453 12.7087207 -8.54296875 13.62304688 C-9.69005565 15.08616792 -10.84431234 16.54366297 -12 18 C-12.67578125 16.265625 -12.67578125 16.265625 -13 14 C-11.85546875 11.859375 -11.85546875 11.859375 -10.1875 9.75 C-9.64480469 9.04359375 -9.10210937 8.3371875 -8.54296875 7.609375 C-8.03378906 7.07828125 -7.52460938 6.5471875 -7 6 C-6.34 6 -5.68 6 -5 6 C-5 5.34 -5 4.68 -5 4 C-5.86882812 4.42152344 -6.73765625 4.84304687 -7.6328125 5.27734375 C-8.78523438 5.82519531 -9.93765625 6.37304688 -11.125 6.9375 C-12.26195312 7.48277344 -13.39890625 8.02804688 -14.5703125 8.58984375 C-17.80154691 9.91840368 -20.57244006 10.46650927 -24 11 C-26.25227778 11.95932106 -26.25227778 11.95932106 -28.25 13.125 C-30.265625 14.2578125 -30.265625 14.2578125 -32 15 C-32.66 14.67 -33.32 14.34 -34 14 C-28.07310203 9.42012429 -21.75162499 6.20978893 -15 3 C-14.32453125 2.65453125 -13.6490625 2.3090625 -12.953125 1.953125 C-8.46045274 -0.23138536 -4.88477404 -0.25709337 0 0 Z " fill="#5E8DB6" transform="translate(493,126)"/>
<path d="M0 0 C5.21993955 5.91593149 6.11701693 11.43157371 7 19 C7.33 19.66 7.66 20.32 8 21 C7.66666667 23.33333333 7.33333333 25.66666667 7 28 C6.79383979 32.53552465 6.83302769 36.60069962 8 41 C8 41.66 8 42.32 8 43 C9.4589426 42.52269162 10.91713496 42.04308958 12.375 41.5625 C13.18710937 41.29566406 13.99921875 41.02882812 14.8359375 40.75390625 C17.01031799 40.04820271 17.01031799 40.04820271 19 39 C19.66 39.66 20.32 40.32 21 41 C14.3723673 44.8741903 9.70288993 46.6212008 2 46 C2.50670722 42.40656253 3.02874927 38.82138358 3.60546875 35.23828125 C5.12759733 24.97157506 5.42924252 15.70136328 1 6 C0.34 5.34 -0.32 4.68 -1 4 C-0.625 1.875 -0.625 1.875 0 0 Z " fill="#7D729C" transform="translate(288,135)"/>
<path d="M0 0 C0.99 0 1.98 0 3 0 C3 0.66 3 1.32 3 2 C6.65989625 3.02613914 10.32692208 4.02210263 14 5 C14.78632813 5.21269531 15.57265625 5.42539062 16.3828125 5.64453125 C27.40464459 8.39011308 36.00025994 6.49990716 46.5 2.75 C49 2 49 2 51 3 C50.67 3.99 50.34 4.98 50 6 C44.767968 8.5848199 38.819779 10.50469966 33 11 C32.00033203 11.11214844 32.00033203 11.11214844 30.98046875 11.2265625 C21.51324816 11.8231701 10.27652298 8.6824794 2.5 3.25 C1.675 2.5075 0.85 1.765 0 1 C0 0.67 0 0.34 0 0 Z " fill="#B67266" transform="translate(224,333)"/>
<path d="M0 0 C1.28013879 3.84041638 0.29297258 6.42849038 -0.75 10.1875 C-2.92449429 18.39213639 -4.53316541 26.64348781 -6 35 C-6.33 35 -6.66 35 -7 35 C-6.98839844 34.28714844 -6.97679687 33.57429688 -6.96484375 32.83984375 C-6.90330623 26.30807604 -6.91674759 20.24975722 -9 14 C-6.91186002 8.71823417 -3.47544189 4.4314696 0 0 Z " fill="#5488B8" transform="translate(498,126)"/>
<path d="M0 0 C2.64752004 2.57784846 4.94432065 4.91648098 7 8 C7 8.99 7 9.98 7 11 C9.475 11.99 9.475 11.99 12 13 C8.81330552 19.74108448 5.32078494 26.67921506 0 32 C-0.875 30 -0.875 30 -1 27 C0.4032492 24.85842584 1.95598683 22.97911283 3.65234375 21.0625 C5.33922487 18.48083847 5.48295411 17.02717628 5 14 C4.01 13.34 3.02 12.68 2 12 C0.96986723 10.35178756 -0.03114628 8.68496298 -1 7 C-1.66 6.34 -2.32 5.68 -3 5 C-2.01 4.67 -1.02 4.34 0 4 C0 2.68 0 1.36 0 0 Z M4 7 C5 9 5 9 5 9 Z " fill="#90A7C6" transform="translate(443,179)"/>
<path d="M0 0 C1.20628008 2.33214148 2.1654738 4.49642139 3 7 C2.67 7.66 2.34 8.32 2 9 C1.61076473 11.36950521 1.2619422 13.7457572 0.9375 16.125 C0.76089844 17.40632813 0.58429688 18.68765625 0.40234375 20.0078125 C0.26957031 20.99523437 0.13679688 21.98265625 0 23 C0.66 23 1.32 23 2 23 C2 21.68 2 20.36 2 19 C2.99 19 3.98 19 5 19 C4.38904663 23.45242726 2.70084207 26.82007403 0.5625 30.75 C-0.36369141 32.47476562 -0.36369141 32.47476562 -1.30859375 34.234375 C-3 37 -3 37 -5 38 C-5.125 34.625 -5.125 34.625 -5 31 C-4.34 30.34 -3.68 29.68 -3 29 C-2.34031804 25.89901883 -2.34031804 25.89901883 -1.9375 22.25 C-1.85516113 21.59056396 -1.77282227 20.93112793 -1.68798828 20.25170898 C-0.87915564 13.51917829 -0.39632183 6.76875966 0 0 Z " fill="#894270" transform="translate(315,306)"/>
<path d="M0 0 C2.15035088 0.88301642 3.32124771 2.012013 4.8359375 3.75390625 C3.5159375 3.75390625 2.1959375 3.75390625 0.8359375 3.75390625 C0.8359375 3.09390625 0.8359375 2.43390625 0.8359375 1.75390625 C-0.4840625 1.75390625 -1.8040625 1.75390625 -3.1640625 1.75390625 C-3.256875 2.65109375 -3.256875 2.65109375 -3.3515625 3.56640625 C-4.50983445 6.68483072 -6.23237865 7.32215367 -9.1640625 8.75390625 C-9.8653125 8.91890625 -10.5665625 9.08390625 -11.2890625 9.25390625 C-13.6483404 9.88304702 -14.49131851 11.01146459 -16.1640625 12.75390625 C-19.50360963 14.9418854 -22.22727196 14.93285127 -26.1640625 14.75390625 C-26.1640625 14.09390625 -26.1640625 13.43390625 -26.1640625 12.75390625 C-25.26945313 12.31820313 -24.37484375 11.8825 -23.453125 11.43359375 C-22.23128799 10.83301256 -21.00996987 10.23137503 -19.7890625 9.62890625 C-18.83700928 9.16000977 -18.83700928 9.16000977 -17.86572266 8.68164062 C-13.12601664 6.31477608 -8.6569448 3.67064663 -4.25 0.72265625 C-2.1640625 -0.24609375 -2.1640625 -0.24609375 0 0 Z " fill="#BF8E98" transform="translate(226.1640625,244.24609375)"/>
<path d="M0 0 C0.33 0 0.66 0 1 0 C1.02578125 1.19496094 1.0515625 2.38992188 1.078125 3.62109375 C1.44430141 15.82234625 1.44430141 15.82234625 6 27 C6.474375 28.051875 6.94875 29.10375 7.4375 30.1875 C9.2970191 33.53463437 11.47140158 36.1296991 14 39 C13.67 39.66 13.34 40.32 13 41 C3 30.20547945 3 30.20547945 3 25 C1.68 24.34 0.36 23.68 -1 23 C-1.02902429 19.72918529 -1.04680684 16.4584037 -1.0625 13.1875 C-1.07087891 12.25873047 -1.07925781 11.32996094 -1.08789062 10.37304688 C-1.09111328 9.48037109 -1.09433594 8.58769531 -1.09765625 7.66796875 C-1.10289307 6.84578857 -1.10812988 6.0236084 -1.11352539 5.17651367 C-1 3 -1 3 0 0 Z " fill="#E8C3B8" transform="translate(208,291)"/>
<path d="M0 0 C1.32 0 2.64 0 4 0 C2.43989422 4.21228561 -0.4845393 6.34546845 -4 9 C-8.20773572 10.40257857 -12.11284927 10.59594233 -16.375 9.25 C-18.43893356 7.6623588 -18.48446121 6.48671652 -19 4 C-17.77023437 4.10828125 -17.77023437 4.10828125 -16.515625 4.21875 C-15.43796875 4.3115625 -14.3603125 4.404375 -13.25 4.5 C-11.64898437 4.63921875 -11.64898437 4.63921875 -10.015625 4.78125 C-7.6820782 4.95052283 -5.33967818 5 -3 5 C-3 4.34 -3 3.68 -3 3 C-1.68 3 -0.36 3 1 3 C0.67 2.01 0.34 1.02 0 0 Z " fill="#886290" transform="translate(352,265)"/>
<path d="M0 0 C0 8.47434899 -4.60566428 13.87833811 -10 20 C-12.33581482 21.8101505 -14.26698892 22.83701656 -17 24 C-17.33 23.34 -17.66 22.68 -18 22 C-17.56171875 21.56816406 -17.1234375 21.13632813 -16.671875 20.69140625 C-11.65543659 15.61636458 -7.52307658 10.03056082 -3.515625 4.13671875 C-2 2 -2 2 0 0 Z " fill="#A9B8D1" transform="translate(439,185)"/>
<path d="M0 0 C4.57949511 4.57949511 4.97103376 13.35248598 5.0390625 19.5703125 C4.6551823 25.27556658 3.88455685 30.59760371 2 36 C1.67 36 1.34 36 1 36 C1.00523682 35.38592285 1.01047363 34.7718457 1.01586914 34.13916016 C1.03692129 31.30111759 1.04974863 28.46309154 1.0625 25.625 C1.07087891 24.65949219 1.07925781 23.69398438 1.08789062 22.69921875 C1.10657428 17.13149043 0.87329651 11.6998471 0.21655273 6.16943359 C0 4 0 4 0 0 Z " fill="#8A94B8" transform="translate(318,127)"/>
<path d="M0 0 C0 0.66 0 1.32 0 2 C-2.31 2.66 -4.62 3.32 -7 4 C-6.67 4.99 -6.34 5.98 -6 7 C-6.99 7.33 -7.98 7.66 -9 8 C-9 8.66 -9 9.32 -9 10 C-9.969375 10.12375 -10.93875 10.2475 -11.9375 10.375 C-12.948125 10.58125 -13.95875 10.7875 -15 11 C-15.33 11.66 -15.66 12.32 -16 13 C-20.105618 14.47182532 -22.82604157 15.29917911 -27 14 C-25.71086513 13.32845067 -24.41859796 12.66291141 -23.125 12 C-22.40570313 11.62875 -21.68640625 11.2575 -20.9453125 10.875 C-19 10 -19 10 -17 10 C-17 9.34 -17 8.68 -17 8 C-15.25048432 7.04078278 -13.50036756 6.08266183 -11.75 5.125 C-10.77546875 4.59132813 -9.8009375 4.05765625 -8.796875 3.5078125 C-2.29015544 0 -2.29015544 0 0 0 Z " fill="#B65E55" transform="translate(199,259)"/>
<path d="M0 0 C1 2 1 2 0.875 4 C0.441875 4.99 0.441875 4.99 0 6 C-0.75410156 6.26554688 -1.50820313 6.53109375 -2.28515625 6.8046875 C-5.69704492 8.30690035 -7.07718921 10.16984336 -9.3125 13.125 C-10.00988281 14.03507813 -10.70726562 14.94515625 -11.42578125 15.8828125 C-11.94527344 16.58148438 -12.46476562 17.28015625 -13 18 C-13.99 17.67 -14.98 17.34 -16 17 C-14.32076975 13.19866558 -11.88537166 10.02917298 -9.375 6.75 C-8.95476562 6.19570312 -8.53453125 5.64140625 -8.1015625 5.0703125 C-7.07061281 3.71133337 -6.03570089 2.35536165 -5 1 C-3.68 1.66 -2.36 2.32 -1 3 C-0.67 2.01 -0.34 1.02 0 0 Z M-6 4 C-6.33 4.66 -6.66 5.32 -7 6 C-6.01 5.67 -5.02 5.34 -4 5 C-4.66 4.67 -5.32 4.34 -6 4 Z " fill="#D8EEF7" transform="translate(489,138)"/>
<path d="M0 0 C0 3.93154432 -1.25327015 6.5065403 -3 10 C-3.99 10.33 -4.98 10.66 -6 11 C-6.69800767 12.65378581 -7.35910069 14.32325604 -8 16 C-9.24885656 17.81627758 -10.56522553 19.58757399 -11.9375 21.3125 C-12.62714844 22.19550781 -13.31679688 23.07851562 -14.02734375 23.98828125 C-14.67832031 24.65214844 -15.32929688 25.31601563 -16 26 C-16.99 26 -17.98 26 -19 26 C-17.26634743 21.92793234 -14.49733507 18.66941421 -11.75 15.25 C-10.75844783 14.0031341 -9.76755842 12.75574086 -8.77734375 11.5078125 C-8.30022949 10.90743164 -7.82311523 10.30705078 -7.33154297 9.68847656 C-4.82254376 6.50691467 -2.41001464 3.25677654 0 0 Z " fill="#7F7EAA" transform="translate(421,209)"/>
<path d="M0 0 C1.65 0 3.3 0 5 0 C1.59780735 2.74792483 -2.48464588 6 -7 6 C-6.83757812 6.83402344 -6.67515625 7.66804687 -6.5078125 8.52734375 C-5.96294223 12.25341816 -5.8674024 15.79788959 -5.875 19.5625 C-5.87242187 20.84253906 -5.86984375 22.12257812 -5.8671875 23.44140625 C-5.97921478 26.44307844 -6.29644645 29.09086189 -7 32 C-7.33 32 -7.66 32 -8 32 C-7.98839844 31.154375 -7.97679687 30.30875 -7.96484375 29.4375 C-7.90078091 21.38388608 -8.27491168 13.88611806 -10 6 C-5.69230769 2.06153846 -5.69230769 2.06153846 -2.1875 1.75 C-1.465625 1.8325 -0.74375 1.915 0 2 C0 1.34 0 0.68 0 0 Z " fill="#DFF1FA" transform="translate(454,141)"/>
<path d="M0 0 C0 0.99 0 1.98 0 3 C-0.33 3.33 -0.66 3.66 -1 4 C-1.07205511 5.68608966 -1.08386068 7.37500659 -1.0625 9.0625 C-1.04896484 10.44115234 -1.04896484 10.44115234 -1.03515625 11.84765625 C-1.02355469 12.55792969 -1.01195312 13.26820313 -1 14 C-1.99 14.495 -1.99 14.495 -3 15 C-3 14.34 -3 13.68 -3 13 C-6.17575482 14.58787741 -6.73816148 17.85158918 -8 21 C-8.55912412 22.31394167 -9.12145738 23.62652393 -9.6875 24.9375 C-10.120625 25.948125 -10.55375 26.95875 -11 28 C-11.33 28 -11.66 28 -12 28 C-11.16374945 18.38311863 -6.91463946 6.91463946 0 0 Z " fill="#AA83A4" transform="translate(195,117)"/>
<path d="M0 0 C0.66 0.33 1.32 0.66 2 1 C1.67 2.98 1.34 4.96 1 7 C0.67 6.01 0.34 5.02 0 4 C-5.02147669 4.98783148 -9.61391996 6.17861941 -14.375 8.0625 C-19.88883135 10.16040754 -25.13264671 10.77302308 -31 11 C-28.32443009 9.21628672 -26.62581229 8.46399887 -23.61328125 7.59765625 C-22.75669922 7.34693359 -21.90011719 7.09621094 -21.01757812 6.83789062 C-20.12490234 6.58201172 -19.23222656 6.32613281 -18.3125 6.0625 C-13.29405935 4.61437432 -8.3378381 3.17609436 -3.48046875 1.24609375 C-2.33191406 0.83488281 -1.18335938 0.42367188 0 0 Z " fill="#F8E0CE" transform="translate(177,289)"/>
<path d="M0 0 C-1 3 -1 3 -3.07421875 4.1328125 C-7.70306362 5.89025136 -12.03610752 7.477485 -17 8 C-17.99 6.68 -18.98 5.36 -20 4 C-16.90439822 2.96813274 -14.16443002 2.66615192 -10.9375 2.37890625 C-6.67876815 1.54604942 -4.71960967 -0.20976043 0 0 Z " fill="#9BB6D0" transform="translate(470,183)"/>
<path d="M0 0 C0 0.66 0 1.32 0 2 C-0.66 2 -1.32 2 -2 2 C-1.67 2.99 -1.34 3.98 -1 5 C-2.670625 5.4021875 -2.670625 5.4021875 -4.375 5.8125 C-8.21840951 6.65809019 -8.21840951 6.65809019 -10 10 C-9.67 10.99 -9.34 11.98 -9 13 C-10.9375 12.25 -10.9375 12.25 -13 11 C-13.75 8.875 -13.75 8.875 -14 7 C-5.55172414 0 -5.55172414 0 0 0 Z " fill="#9575A1" transform="translate(296,205)"/>
<path d="M0 0 C-1.423125 0.37125 -1.423125 0.37125 -2.875 0.75 C-6.11297439 1.6212035 -6.11297439 1.6212035 -6.875 4 C-8 6 -8 6 -9.85546875 6.6328125 C-11.30453334 6.95596673 -12.76077365 7.2487447 -14.22265625 7.5078125 C-14.80917969 7.67023438 -15.39570313 7.83265625 -16 8 C-16.33 8.66 -16.66 9.32 -17 10 C-17.99 10.33 -18.98 10.66 -20 11 C-20.66 10.34 -21.32 9.68 -22 9 C-19.36491755 5.86790911 -16.25239783 4.5419459 -12.5625 2.875 C-11.42941406 2.35679687 -10.29632813 1.83859375 -9.12890625 1.3046875 C-2.72838666 -1.36419333 -2.72838666 -1.36419333 0 0 Z " fill="#947EA8" transform="translate(319,195)"/>
<path d="M0 0 C0.66 0 1.32 0 2 0 C1.52319861 2.43798448 1.04365871 4.87537516 0.5625 7.3125 C0.42779297 8.00279297 0.29308594 8.69308594 0.15429688 9.40429688 C-0.42774332 12.34289007 -1.05152228 15.15456685 -2 18 C-7.28 18.66 -12.56 19.32 -18 20 C-18 19.34 -18 18.68 -18 18 C-12.89665983 16.094753 -8.53657294 14.57410977 -3 15 C-3.04125 14.29875 -3.0825 13.5975 -3.125 12.875 C-2.98243348 9.59596996 -2.11284672 7.07669387 -1 4 C-0.65023242 2.67088318 -0.30903983 1.33917261 0 0 Z " fill="#5783AF" transform="translate(489,163)"/>
<path d="M0 0 C0.33 0 0.66 0 1 0 C1.16874864 4.52075812 1.3346291 9.04161716 1.5 13.5625 C1.54769531 14.83931641 1.59539062 16.11613281 1.64453125 17.43164062 C1.68964844 18.67236328 1.73476562 19.91308594 1.78125 21.19140625 C1.82314453 22.32779541 1.86503906 23.46418457 1.90820312 24.63500977 C2.00250263 28.09173852 2.0153767 31.54216406 2 35 C-1.3794507 28.91698875 -1.1546332 22.84356408 -1.125 16.0625 C-1.12886719 15.18142578 -1.13273438 14.30035156 -1.13671875 13.39257812 C-1.12986032 8.81457929 -0.93490801 4.50388225 0 0 Z " fill="#C87452" transform="translate(178,290)"/>
<path d="M0 0 C0.99 0.33 1.98 0.66 3 1 C2.34959456 4.42383239 1.57842016 7.7726517 0.625 11.125 C0.27308594 12.39730469 0.27308594 12.39730469 -0.0859375 13.6953125 C-1.04418005 16.11139414 -2.04271618 17.32701439 -4 19 C-4.18451025 9.58997722 -4.18451025 9.58997722 -3 5 C-2.34 5 -1.68 5 -1 5 C-0.67 3.35 -0.34 1.7 0 0 Z " fill="#917BA9" transform="translate(358,225)"/>
<path d="M0 0 C0 0.66 0 1.32 0 2 C3.465 1.505 3.465 1.505 7 1 C7.33 2.32 7.66 3.64 8 5 C8.66 5 9.32 5 10 5 C9.67 5.99 9.34 6.98 9 8 C7.824375 7.484375 6.64875 6.96875 5.4375 6.4375 C1.28969256 4.86368654 -1.63161238 5.05779875 -6 6 C-6.99 6 -7.98 6 -9 6 C-4.53846154 0 -4.53846154 0 0 0 Z " fill="#AAB3CD" transform="translate(390,201)"/>
<path d="M0 0 C-3.94591279 2.02228979 -7.89691409 4.03414462 -11.85302734 6.03637695 C-13.19888728 6.71938218 -14.54329906 7.40524867 -15.88623047 8.09399414 C-17.81366968 9.08189564 -19.74603477 10.0594849 -21.6796875 11.03515625 C-22.84226074 11.6269165 -24.00483398 12.21867676 -25.20263672 12.82836914 C-26.58733154 13.40832642 -26.58733154 13.40832642 -28 14 C-28.66 13.67 -29.32 13.34 -30 13 C-24.07456039 8.42125121 -17.75370269 5.20250304 -11 2 C-10.278125 1.64292969 -9.55625 1.28585938 -8.8125 0.91796875 C-5.37882395 -0.70266715 -3.59758078 -1.12424399 0 0 Z " fill="#DCF1F9" transform="translate(489,127)"/>
<path d="M0 0 C0.99 0.33 1.98 0.66 3 1 C2.23543868 2.75274927 1.46307507 4.5020963 0.6875 6.25 C0.25824219 7.22453125 -0.17101562 8.1990625 -0.61328125 9.203125 C-1.87053843 11.73888878 -3.22177189 13.80980702 -5 16 C-6.87443946 8.48520179 -6.87443946 8.48520179 -4.73046875 4.84375 C-3.2260999 3.12447131 -1.69624449 1.52907836 0 0 Z " fill="#70457A" transform="translate(199,114)"/>
<path d="M0 0 C3.73487777 0.4979837 5.81237635 0.87491756 9 3 C9.33 3.99 9.66 4.98 10 6 C11.99116046 7.36892281 14.06323921 8.47171693 16.1875 9.62109375 C18.37047681 11.28184981 18.63775446 12.33409919 19 15 C18.29423828 14.45859375 18.29423828 14.45859375 17.57421875 13.90625 C16.95160156 13.4421875 16.32898438 12.978125 15.6875 12.5 C15.07261719 12.0359375 14.45773437 11.571875 13.82421875 11.09375 C11.92566995 9.74288717 11.92566995 9.74288717 9 10 C8.34 9.01 7.68 8.02 7 7 C3.91634129 6.7497843 3.91634129 6.7497843 1 7 C1.20625 6.21625 1.4125 5.4325 1.625 4.625 C1.74875 3.75875 1.8725 2.8925 2 2 C1.34 1.34 0.68 0.68 0 0 Z " fill="#A8B8D2" transform="translate(289,96)"/>
<path d="M0 0 C0.66 0 1.32 0 2 0 C2.21824777 6.0018137 1.5056904 11.19233704 0 17 C-0.33 17 -0.66 17 -1 17 C-1.33 18.65 -1.66 20.3 -2 22 C-4.31 22.66 -6.62 23.32 -9 24 C-8.505 22.515 -8.505 22.515 -8 21 C-7.34 21 -6.68 21 -6 21 C-6 20.01 -6 19.02 -6 18 C-5.34 18 -4.68 18 -4 18 C-3.34 15.69 -2.68 13.38 -2 11 C-1.34 11 -0.68 11 0 11 C-0.2784375 9.9171875 -0.2784375 9.9171875 -0.5625 8.8125 C-1.02142086 5.86229447 -0.71778988 3.87115954 0 1 C0 0.67 0 0.34 0 0 Z " fill="#8B435C" transform="translate(312,323)"/>
<path d="M0 0 C0.33 0 0.66 0 1 0 C1.09796875 0.96679688 1.1959375 1.93359375 1.296875 2.9296875 C2.11488399 10.05200717 3.0435416 16.28233476 6.09765625 22.8515625 C7.08980544 25.21382247 7.57111501 27.47974797 8 30 C6 28.25 6 28.25 4 26 C4 24.68 4 23.36 4 22 C2.68 21.34 1.36 20.68 0 20 C0 13.4 0 6.8 0 0 Z " fill="#9F85AD" transform="translate(215,155)"/>
<path d="M0 0 C5.21993955 5.91593149 6.11701693 11.43157371 7 19 C7.33 19.66 7.66 20.32 8 21 C7.75290429 23.05061033 7.43007496 25.09252671 7.0625 27.125 C6.86785156 28.22070312 6.67320312 29.31640625 6.47265625 30.4453125 C6.31667969 31.28835937 6.16070312 32.13140625 6 33 C5.67 33 5.34 33 5 33 C5.02320313 32.41734375 5.04640625 31.8346875 5.0703125 31.234375 C5.258335 22.69278155 4.6443203 13.84203738 1 6 C0.34 5.34 -0.32 4.68 -1 4 C-0.625 1.875 -0.625 1.875 0 0 Z " fill="#B3B1CD" transform="translate(288,135)"/>
<path d="M0 0 C-1.59846469 4.24908336 -4.8130392 6.82225739 -8.125 9.75 C-8.68832031 10.25660156 -9.25164062 10.76320313 -9.83203125 11.28515625 C-11.21651531 12.52884532 -12.60761488 13.76516305 -14 15 C-14.66 14.67 -15.32 14.34 -16 14 C-15.67 12.68 -15.34 11.36 -15 10 C-14.01 10 -13.02 10 -12 10 C-12 9.34 -12 8.68 -12 8 C-11.01 8 -10.02 8 -9 8 C-8.731875 7.236875 -8.46375 6.47375 -8.1875 5.6875 C-6.13551779 1.04354027 -5.2132799 0 0 0 Z " fill="#AC7E8D" transform="translate(309,345)"/>
<path d="M0 0 C0.33 1.32 0.66 2.64 1 4 C0.01 4.66 -0.98 5.32 -2 6 C-2.70151152 7.3153341 -3.36525925 8.65117592 -4 10 C-6.0449173 13.16032674 -7.68845487 14.34422743 -11 16 C-11.33 16.99 -11.66 17.98 -12 19 C-12.66 19 -13.32 19 -14 19 C-12.56563891 14.73568324 -10.44379516 11.80984447 -7.5625 8.375 C-6.78003906 7.43398437 -5.99757813 6.49296875 -5.19140625 5.5234375 C-3.51771192 3.59615312 -1.84095853 1.76400528 0 0 Z " fill="#8682A9" transform="translate(380,208)"/>
<path d="M0 0 C2.5 1.3125 2.5 1.3125 5 3 C5 3.99 5 4.98 5 6 C2.59375 8.04296875 2.59375 8.04296875 -0.5 10.1875 C-1.5209375 10.90292969 -2.541875 11.61835938 -3.59375 12.35546875 C-4.3878125 12.89816406 -5.181875 13.44085938 -6 14 C-6.66 13.67 -7.32 13.34 -8 13 C-6.89159471 10.07784059 -6.25438636 9.1365 -3.4375 7.625 C-0.66443891 6.16901564 -0.66443891 6.16901564 -0.1875 2.8125 C-0.125625 1.884375 -0.06375 0.95625 0 0 Z " fill="#AE8B9E" transform="translate(234,250)"/>
<path d="M0 0 C0.99 0 1.98 0 3 0 C3 0.66 3 1.32 3 2 C13.01288599 4.80735121 22.61433124 7.17608473 33 8 C33 8.33 33 8.66 33 9 C13.31620958 9.76441905 13.31620958 9.76441905 6 5 C5.38511719 4.63003906 4.77023438 4.26007813 4.13671875 3.87890625 C2.71376765 2.98588176 1.34810869 2.00243979 0 1 C0 0.67 0 0.34 0 0 Z " fill="#F8DFD6" transform="translate(224,333)"/>
<path d="M0 0 C1.04414063 -0.00257812 2.08828125 -0.00515625 3.1640625 -0.0078125 C4.24429688 -0.00007813 5.32453125 0.00765625 6.4375 0.015625 C7.51773437 0.00789063 8.59796875 0.00015625 9.7109375 -0.0078125 C10.75507813 -0.00523438 11.79921875 -0.00265625 12.875 0 C13.82246094 0.00225586 14.76992188 0.00451172 15.74609375 0.00683594 C18.63158577 0.28428709 20.81203014 1.06605688 23.4375 2.265625 C23.4375 2.595625 23.4375 2.925625 23.4375 3.265625 C22.34248169 3.25776978 22.34248169 3.25776978 21.2253418 3.24975586 C17.85857026 3.22873183 14.49181261 3.21588498 11.125 3.203125 C9.97708984 3.19474609 8.82917969 3.18636719 7.64648438 3.17773438 C0.51618651 3.15753523 -6.47594572 3.46844381 -13.5625 4.265625 C-9.00840453 1.22956136 -5.47519105 0.01303617 0 0 Z " fill="#CED5E8" transform="translate(248.5625,86.734375)"/>
<path d="M0 0 C0.66 0.33 1.32 0.66 2 1 C-4.70496786 5.28372947 -11.23478115 7.38388846 -19 9 C-19 8.01 -19 7.02 -19 6 C-15.14829057 2.64528533 -11.95644089 2.8978186 -7.15234375 3.09765625 C-4.19416169 2.96343746 -2.38716128 1.66377907 0 0 Z " fill="#C78C86" transform="translate(291,360)"/>
<path d="M0 0 C1.61639966 4.04099915 0.52218844 7.05614813 -1 11 C-4.55176044 15.56654914 -7.54773342 16.82402093 -13 18 C-12.29875 17.360625 -11.5975 16.72125 -10.875 16.0625 C-6.28486833 11.48544563 -2.78755696 5.82612616 0 0 Z " fill="#B58694" transform="translate(286,317)"/>
<path d="M0 0 C0.33 0 0.66 0 1 0 C2.5570215 8.00386259 3.19240016 15.5030293 2.75 23.625 C2.71140869 24.39440918 2.67281738 25.16381836 2.63305664 25.95654297 C2.38015911 29.71138608 2.06772423 32.79672229 0 36 C-0.33 33.36 -0.66 30.72 -1 28 C-0.34 28 0.32 28 1 28 C0.67 18.76 0.34 9.52 0 0 Z " fill="#C9B1CB" transform="translate(322,282)"/>
<path d="M0 0 C-3.75 2 -3.75 2 -6 2 C-6 3.98 -6 5.96 -6 8 C-3.50907189 9.24546405 -2.58919267 8.7767578 0 8 C0.33 5.69 0.66 3.38 1 1 C3 4 3 4 2.75 6.5625 C2 9 2 9 0 11 C-3.13704316 11.333728 -5.16554166 11.52849028 -7.875 9.8125 C-9.40659584 7.34492892 -9.42822025 5.85480169 -9 3 C-6.71619742 -0.67945972 -4.04424788 -0.26961653 0 0 Z " fill="#D3E8F6" transform="translate(473,155)"/>
<path d="M0 0 C3.63 0.33 7.26 0.66 11 1 C11 1.66 11 2.32 11 3 C11.58007812 3.04898437 12.16015625 3.09796875 12.7578125 3.1484375 C17.43923092 3.59649405 21.57485459 4.298021 26 6 C21.57534833 7.37265812 17.94100254 6.29053864 13.5625 5.1875 C12.43618164 4.91969727 12.43618164 4.91969727 11.28710938 4.64648438 C7.38445753 3.6957064 3.68967271 2.62110868 0 1 C0 0.67 0 0.34 0 0 Z " fill="#D58655" transform="translate(215,364)"/>
<path d="M0 0 C1.65 0 3.3 0 5 0 C5 0.99 5 1.98 5 3 C5.78375 3.144375 6.5675 3.28875 7.375 3.4375 C10 4 10 4 12 5 C12 6.65 12 8.3 12 10 C6.68572797 7.29076328 3.57851409 4.77135213 0 0 Z " fill="#E07A3D" transform="translate(193,348)"/>
<path d="M0 0 C0.76183594 0.20496094 1.52367187 0.40992188 2.30859375 0.62109375 C8.56206324 2.25277305 14.55933806 3.46327817 21 4 C19.68 4.33 18.36 4.66 17 5 C17 5.66 17 6.32 17 7 C15.02 7 13.04 7 11 7 C11 6.34 11 5.68 11 5 C9.35 5 7.7 5 6 5 C6 4.34 6 3.68 6 3 C3.03 2.505 3.03 2.505 0 2 C0 1.34 0 0.68 0 0 Z " fill="#BD5F48" transform="translate(235,340)"/>
<path d="M0 0 C0.33 0 0.66 0 1 0 C0.96519531 1.44632813 0.96519531 1.44632813 0.9296875 2.921875 C0.91164063 4.18515625 0.89359375 5.4484375 0.875 6.75 C0.85179687 8.00296875 0.82859375 9.2559375 0.8046875 10.546875 C0.98462698 13.72820492 1.31001418 15.36521896 3 18 C0 16.4375 0 16.4375 -3 14 C-3.42056706 10.5153015 -3.58368102 8.16736204 -2 5 C-1.34 5 -0.68 5 0 5 C0 3.35 0 1.7 0 0 Z " fill="#7795BA" transform="translate(447,168)"/>
<path d="M0 0 C-1.98 0.66 -3.96 1.32 -6 2 C-6 2.66 -6 3.32 -6 4 C-7.093125 4.28875 -8.18625 4.5775 -9.3125 4.875 C-13.04013845 5.81893204 -13.04013845 5.81893204 -16 8 C-16.99 7.34 -17.98 6.68 -19 6 C-18.05125 5.38125 -17.1025 4.7625 -16.125 4.125 C-13.05554891 2.18029031 -13.05554891 2.18029031 -11 0 C-9.68 0 -8.36 0 -7 0 C-3.86650268 -1.04449911 -3.01031744 -0.93423645 0 0 Z " fill="#8D8CB0" transform="translate(235,92)"/>
<path d="M0 0 C1.0859375 3.765625 1.0859375 3.765625 0.3125 5.875 C-1.39001011 8.63144494 -3.17498729 11.3233147 -5 14 C-5.99 13.34 -6.98 12.68 -8 12 C-6.59023295 8.96147295 -4.91129772 6.4060405 -2.875 3.75 C-2.06675781 2.69039062 -2.06675781 2.69039062 -1.2421875 1.609375 C-0.83226562 1.07828125 -0.42234375 0.5471875 0 0 Z " fill="#D9EEF7" transform="translate(493,127)"/>
<path d="M0 0 C4.27750385 1.49106888 5.39347545 4.03814285 7.3125 8 C7.84488281 9.0725 8.37726563 10.145 8.92578125 11.25 C9.28027344 12.1575 9.63476562 13.065 10 14 C9.67 14.66 9.34 15.32 9 16 C7.02 15.34 5.04 14.68 3 14 C3.33 13.34 3.66 12.68 4 12 C4.41702122 9.0842309 4.41702122 9.0842309 4 6 C2.08333079 3.74934898 2.08333079 3.74934898 0 2 C0 1.34 0 0.68 0 0 Z " fill="#9CB0CC" transform="translate(308,111)"/>
<path d="M0 0 C2.64752004 2.57784846 4.94432065 4.91648098 7 8 C7 8.99 7 9.98 7 11 C3.60406522 11 2.93380119 10.47834052 0.3125 8.5 C-0.31011719 8.0359375 -0.93273437 7.571875 -1.57421875 7.09375 C-2.04472656 6.7328125 -2.51523437 6.371875 -3 6 C-2.67 5.34 -2.34 4.68 -2 4 C-1.34 4 -0.68 4 0 4 C0 2.68 0 1.36 0 0 Z M4 7 C5 9 5 9 5 9 Z " fill="#DDEDF6" transform="translate(443,179)"/>
<path d="M0 0 C-7.05226014 3.62317952 -14.26512137 6.28113808 -22 8 C-22 7.34 -22 6.68 -22 6 C-18.7 5.34 -15.4 4.68 -12 4 C-12 3.34 -12 2.68 -12 2 C-8.09971775 -0.60018816 -4.52565431 -0.15085514 0 0 Z " fill="#C87456" transform="translate(177,289)"/>
<path d="M0 0 C0 0.66 0 1.32 0 2 C-2.31 2.66 -4.62 3.32 -7 4 C-6.67 4.99 -6.34 5.98 -6 7 C-12.96428571 9.27678571 -12.96428571 9.27678571 -17 8 C-15.25048432 7.04078278 -13.50036756 6.08266183 -11.75 5.125 C-10.28820312 4.32449219 -10.28820312 4.32449219 -8.796875 3.5078125 C-2.29015544 0 -2.29015544 0 0 0 Z " fill="#DBB2AE" transform="translate(199,259)"/>
<path d="M0 0 C0.66 0 1.32 0 2 0 C1.9375 1.75 1.9375 1.75 1 4 C-3.09149182 6.83257126 -5.89829756 8.61838818 -11 8 C-9.625 6.5 -9.625 6.5 -8 5 C-7.34 5 -6.68 5 -6 5 C-6 4.01 -6 3.02 -6 2 C-4.02 2 -2.04 2 0 2 C0 1.34 0 0.68 0 0 Z " fill="#9C4C4B" transform="translate(292,356)"/>
<path d="M0 0 C0.6875 1.8125 0.6875 1.8125 1 4 C0.54625 4.4434375 0.0925 4.886875 -0.375 5.34375 C-2.34227892 7.3488612 -2.87446255 9.01609124 -3.6875 11.6875 C-3.93886719 12.49574219 -4.19023437 13.30398438 -4.44921875 14.13671875 C-4.72185547 15.05904297 -4.72185547 15.05904297 -5 16 C-6.51953125 14.63671875 -6.51953125 14.63671875 -8 13 C-7.6875 10.8125 -7.6875 10.8125 -7 9 C-6.67 9.33 -6.34 9.66 -6 10 C-5.67 7.69 -5.34 5.38 -5 3 C-4.67 3.66 -4.34 4.32 -4 5 C-2.29159719 3.36587557 -1.06546953 2.13093906 0 0 Z " fill="#D5A5A2" transform="translate(215,275)"/>
<path d="M0 0 C0 6.50503726 -2.08774017 9.99057505 -6 15 C-6.82707306 12.63011757 -7.12634 11.38269269 -6.328125 8.96484375 C-5.79445313 7.96130859 -5.79445313 7.96130859 -5.25 6.9375 C-4.90453125 6.26589844 -4.5590625 5.59429687 -4.203125 4.90234375 C-2.98581478 2.97757077 -1.66921919 1.5397108 0 0 Z " fill="#7F98BF" transform="translate(439,185)"/>
<path d="M0 0 C0.33 0 0.66 0 1 0 C1.38910684 2.93626007 1.76176981 5.87302605 2.125 8.8125 C2.23714844 9.64587891 2.34929687 10.47925781 2.46484375 11.33789062 C2.56152344 12.14033203 2.65820312 12.94277344 2.7578125 13.76953125 C2.8520752 14.50792236 2.94633789 15.24631348 3.04345703 16.00708008 C3 18 3 18 1 21 C0 20 0 20 -0.11352539 18.05053711 C-0.10567017 16.8015564 -0.10567017 16.8015564 -0.09765625 15.52734375 C-0.09443359 14.62822266 -0.09121094 13.72910156 -0.08789062 12.80273438 C-0.07951172 11.85720703 -0.07113281 10.91167969 -0.0625 9.9375 C-0.05798828 8.98810547 -0.05347656 8.03871094 -0.04882812 7.06054688 C-0.0370011 4.70696935 -0.02052025 2.35351523 0 0 Z " fill="#5D3D7B" transform="translate(213,151)"/>
<path d="M0 0 C0.99 0.33 1.98 0.66 3 1 C-0.20760251 4.80635497 -3.40746109 8.54563567 -7 12 C-7.33 11.01 -7.66 10.02 -8 9 C-5.75 5.8125 -5.75 5.8125 -3 3 C-2.01 3 -1.02 3 0 3 C0 2.01 0 1.02 0 0 Z " fill="#BB8B95" transform="translate(223,263)"/>
<path d="M0 0 C3.55150592 0.30441479 4.97138802 0.97593993 7.75 3.3125 C9.78634065 5.74479578 10.6577784 6.92000563 11 10 C8.525 9.01 8.525 9.01 6 8 C6 6.68 6 5.36 6 4 C4.68 3.67 3.36 3.34 2 3 C2 2.34 2 1.68 2 1 C1.34 0.67 0.68 0.34 0 0 Z " fill="#929CBC" transform="translate(355,186)"/>
<path d="M0 0 C0 0.99 0 1.98 0 3 C-0.99 3 -1.98 3 -3 3 C-3.33 8.94 -3.66 14.88 -4 21 C-4.33 21 -4.66 21 -5 21 C-5.33 15.06 -5.66 9.12 -6 3 C-4.02 2.01 -2.04 1.02 0 0 Z " fill="#6A8EAF" transform="translate(453,144)"/>
<path d="M0 0 C0 0.99 0 1.98 0 3 C-0.33 3.33 -0.66 3.66 -1 4 C-1.07205511 5.68608966 -1.08386068 7.37500659 -1.0625 9.0625 C-1.05347656 9.98160156 -1.04445312 10.90070313 -1.03515625 11.84765625 C-1.02355469 12.55792969 -1.01195312 13.26820313 -1 14 C-1.99 14.495 -1.99 14.495 -3 15 C-5 12 -5 12 -4.875 8.625 C-3.94025688 4.75249279 -2.6977222 2.87176879 0 0 Z " fill="#A279A1" transform="translate(195,117)"/>
<path d="M0 0 C1.75570313 0.01353516 1.75570313 0.01353516 3.546875 0.02734375 C4.43890625 0.03894531 5.3309375 0.05054688 6.25 0.0625 C5.26 0.3925 4.27 0.7225 3.25 1.0625 C3.25 1.7225 3.25 2.3825 3.25 3.0625 C-2.36 3.0625 -7.97 3.0625 -13.75 3.0625 C-9.08158223 -0.04977851 -5.57402862 -0.05574029 0 0 Z " fill="#9EA2C2" transform="translate(348.75,184.9375)"/>
<path d="M0 0 C0.99 0.33 1.98 0.66 3 1 C1.7874262 4.72433382 0.49140021 8.37802806 -1 12 C-2.85776765 8.86501708 -3.20140476 6.62528568 -3 3 C-2.01 3 -1.02 3 0 3 C0 2.01 0 1.02 0 0 Z " fill="#7C6E9D" transform="translate(219,135)"/>
<path d="M0 0 C0.88042969 0.2165625 1.76085937 0.433125 2.66796875 0.65625 C3.82941406 0.9346875 4.99085937 1.213125 6.1875 1.5 C7.91033203 1.91765625 7.91033203 1.91765625 9.66796875 2.34375 C12.56818829 2.91495385 15.06096385 3.13283779 18 3 C17.67 3.66 17.34 4.32 17 5 C14.91587093 4.93976506 12.83255565 4.85091679 10.75 4.75 C9.58984375 4.70359375 8.4296875 4.6571875 7.234375 4.609375 C3.53338618 3.91208725 2.32877571 2.88214816 0 0 Z " fill="#DC7A3B" transform="translate(114,294)"/>
<path d="M0 0 C2.125 0.9375 2.125 0.9375 4 2 C3.05125 2.45375 2.1025 2.9075 1.125 3.375 C-2.00313679 4.80238254 -2.00313679 4.80238254 -4 7 C-6.625 7.125 -6.625 7.125 -9 7 C-9 6.34 -9 5.68 -9 5 C-6.35261084 3.5393715 -5.10551666 3 -2 3 C-2 2.34 -2 1.68 -2 1 C-1.34 0.67 -0.68 0.34 0 0 Z " fill="#A85B5E" transform="translate(201,258)"/>
<path d="M0 0 C-0.33 1.32 -0.66 2.64 -1 4 C-0.34 4.33 0.32 4.66 1 5 C0.67 5.66 0.34 6.32 0 7 C-3.36591866 5.55746343 -5.51047079 3.66735273 -8 1 C-5.29120665 -0.35439668 -2.99066732 -0.06501451 0 0 Z " fill="#9E6988" transform="translate(269,254)"/>
<path d="M0 0 C0 3.60573896 -0.81707462 4.41336566 -3 7.1875 C-3.556875 7.90292969 -4.11375 8.61835938 -4.6875 9.35546875 C-5.120625 9.89816406 -5.55375 10.44085938 -6 11 C-6.99 9.68 -7.98 8.36 -9 7 C-6 5 -6 5 -3 5 C-3.33 3.68 -3.66 2.36 -4 1 C-2.68 0.67 -1.36 0.34 0 0 Z " fill="#9095BB" transform="translate(430,224)"/>
<path d="M0 0 C0.66 0.33 1.32 0.66 2 1 C-0.28538605 5.08963819 -2.95706926 8.46362104 -6 12 C-6.33 11.34 -6.66 10.68 -7 10 C-5.06305458 6.19528578 -3.29078593 2.79716804 0 0 Z " fill="#58699E" transform="translate(425,206)"/>
<path d="M0 0 C2.125 0.9375 2.125 0.9375 4 2 C1.94037148 2.67548578 -0.12284322 3.34004312 -2.1875 4 C-3.33605469 4.37125 -4.48460937 4.7425 -5.66796875 5.125 C-8.64320812 5.90630553 -10.95283896 6.18363306 -14 6 C-11.33527069 4.2235138 -9.43458592 3.38056987 -6.4375 2.4375 C-4.18550657 1.72381407 -2.11355296 1.05677648 0 0 Z " fill="#D9B5B3" transform="translate(271,335)"/>
<path d="M0 0 C0.99 0.33 1.98 0.66 3 1 C-0.04598747 3.03065831 -1.12812681 3.29482404 -4.625 3.5625 C-7.61114422 3.58977223 -7.61114422 3.58977223 -10 5 C-11.51928038 5.07179964 -13.04167482 5.08392007 -14.5625 5.0625 C-15.38878906 5.05347656 -16.21507813 5.04445313 -17.06640625 5.03515625 C-17.70449219 5.02355469 -18.34257813 5.01195312 -19 5 C-19 4.67 -19 4.34 -19 4 C-13.93712557 2.61921606 -9.11241829 1.69252351 -3.8828125 1.24609375 C-1.91352564 1.09323004 -1.91352564 1.09323004 0 0 Z " fill="#DA7236" transform="translate(138,287)"/>
<path d="M0 0 C3.4340702 1.38517117 4.70022022 2.65444364 6.25 6 C6.75273437 7.051875 6.75273437 7.051875 7.265625 8.125 C8 10 8 10 8 12 C6.02 11.34 4.04 10.68 2 10 C2.66 9.67 3.32 9.34 4 9 C3.566875 8.1646875 3.566875 8.1646875 3.125 7.3125 C1.9586747 4.91505355 0.9660119 2.48403061 0 0 Z " fill="#B79DBF" transform="translate(304,248)"/>
<path d="M0 0 C0.99 0.33 1.98 0.66 3 1 C1.5140084 5.59306496 -0.85014682 8.43569245 -4 12 C-4.33 10.68 -4.66 9.36 -5 8 C-4.34 8 -3.68 8 -3 8 C-3.33 7.01 -3.66 6.02 -4 5 C-2.68 4.67 -1.36 4.34 0 4 C0 2.68 0 1.36 0 0 Z " fill="#9586AC" transform="translate(375,237)"/>
<path d="M0 0 C1.98 0.99 1.98 0.99 4 2 C4 2.66 4 3.32 4 4 C4.61875 4.268125 5.2375 4.53625 5.875 4.8125 C8 6 8 6 10 9 C9.01 9.495 9.01 9.495 8 10 C6 9 6 9 5 6 C2.49552484 4.78130071 2.49552484 4.78130071 0 4 C0 2.68 0 1.36 0 0 Z " fill="#A087AD" transform="translate(285,230)"/>
<path d="M0 0 C3.25 0.125 3.25 0.125 7 1 C9.4375 4.0625 9.4375 4.0625 11 7 C7.41584854 7 6.58796261 6.21108216 3.8125 4.0625 C3.09707031 3.51722656 2.38164062 2.97195312 1.64453125 2.41015625 C1.10183594 1.94480469 0.55914062 1.47945312 0 1 C0 0.67 0 0.34 0 0 Z " fill="#B38299" transform="translate(219,225)"/>
<path d="M0 0 C0.66 0.33 1.32 0.66 2 1 C1.67 1.66 1.34 2.32 1 3 C1.99 3.33 2.98 3.66 4 4 C0.84493858 4.93619813 -1.96586502 5.1057123 -5.25 5.0625 C-6.14203125 5.05347656 -7.0340625 5.04445313 -7.953125 5.03515625 C-8.62859375 5.02355469 -9.3040625 5.01195312 -10 5 C-9.10667969 4.55720703 -9.10667969 4.55720703 -8.1953125 4.10546875 C-6.40637033 3.20463132 -4.63740947 2.26420112 -2.875 1.3125 C-1.451875 0.6628125 -1.451875 0.6628125 0 0 Z " fill="#B54C36" transform="translate(262,365)"/>
<path d="M0 0 C0.99 0 1.98 0 3 0 C2.39301257 4.12751449 0.96189209 7.3321148 -1 11 C-2.0625 9.1875 -2.0625 9.1875 -3 7 C-2.67 6.01 -2.34 5.02 -2 4 C-1.34 4 -0.68 4 0 4 C0 2.68 0 1.36 0 0 Z " fill="#9F799A" transform="translate(317,325)"/>
<path d="M0 0 C-1.03443859 2.82119614 -1.73220706 3.84496198 -4.375 5.375 C-7.51003372 6.1214366 -8.28907796 5.53426651 -11 4 C-9.5437455 3.32880451 -8.08492133 2.66318193 -6.625 2 C-5.81289062 1.62875 -5.00078125 1.2575 -4.1640625 0.875 C-2 0 -2 0 0 0 Z M-10 6 C-7 7 -7 7 -7 7 Z " fill="#BF6653" transform="translate(172,274)"/>
<path d="M0 0 C1.12758089 3.38274266 0.81750262 4.76778223 0.0625 8.1875 C-0.13214844 9.08855469 -0.32679688 9.98960937 -0.52734375 10.91796875 C-0.68332031 11.60503906 -0.83929688 12.29210937 -1 13 C-1.33 13 -1.66 13 -2 13 C-2.33 11.35 -2.66 9.7 -3 8 C-4.98 8.99 -4.98 8.99 -7 10 C-6.02223933 8.51990357 -5.0427506 7.04094856 -4.0625 5.5625 C-3.51722656 4.73878906 -2.97195313 3.91507813 -2.41015625 3.06640625 C-1 1 -1 1 0 0 Z " fill="#6B95B4" transform="translate(498,126)"/>
<path d="M0 0 C0.66 0.33 1.32 0.66 2 1 C1.3503125 1.59748047 1.3503125 1.59748047 0.6875 2.20703125 C0.130625 2.73683594 -0.42625 3.26664062 -1 3.8125 C-1.556875 4.33457031 -2.11375 4.85664062 -2.6875 5.39453125 C-4.316465 7.04148967 -4.316465 7.04148967 -4 10 C-4.78375 10.309375 -5.5675 10.61875 -6.375 10.9375 C-8.92330128 11.92875038 -8.92330128 11.92875038 -11 13 C-9.46356148 9.31930113 -7.21849055 7.01224796 -4.375 4.25 C-3.55773437 3.45078125 -2.74046875 2.6515625 -1.8984375 1.828125 C-0.95871094 0.92320313 -0.95871094 0.92320313 0 0 Z " fill="#AD9CBB" transform="translate(207,104)"/>
<path d="M0 0 C-2.94723051 1.96482034 -5.11977826 2.7561217 -8.5 3.6875 C-9.4590625 3.95949219 -10.418125 4.23148437 -11.40625 4.51171875 C-14 5 -14 5 -17 4 C-11.29751094 0.87720837 -6.47016946 -0.1902991 0 0 Z " fill="#FBE1CB" transform="translate(147,283)"/>
<path d="M0 0 C0.66 0.33 1.32 0.66 2 1 C1.23543868 2.75274927 0.46307507 4.5020963 -0.3125 6.25 C-0.74175781 7.22453125 -1.17101562 8.1990625 -1.61328125 9.203125 C-2.87053843 11.73888878 -4.22177189 13.80980702 -6 16 C-5.52412884 9.97229862 -2.80277043 5.23321711 0 0 Z " fill="#643E80" transform="translate(200,114)"/>
<path d="M0 0 C6.4 0.49230769 6.4 0.49230769 9.4375 3.0625 C10.2109375 4.0215625 10.2109375 4.0215625 11 5 C5.95749572 5 4.22094347 3.59750368 0 1 C0 0.67 0 0.34 0 0 Z " fill="#D87E44" transform="translate(205,358)"/>
<path d="M0 0 C0.99 0 1.98 0 3 0 C3 0.66 3 1.32 3 2 C3.66 2 4.32 2 5 2 C5 2.99 5 3.98 5 5 C5.99 5.33 6.98 5.66 8 6 C8 6.66 8 7.32 8 8 C4.82461668 7.65978036 3.97723135 6.97533396 1.75 4.5625 C0 2 0 2 0 0 Z " fill="#D97639" transform="translate(186,338)"/>
<path d="M0 0 C1.32 0 2.64 0 4 0 C2.44499019 3.81684226 -0.03595495 6.19195732 -3 9 C-3.33 8.01 -3.66 7.02 -4 6 C-3.01 6 -2.02 6 -1 6 C-1.33 5.01 -1.66 4.02 -2 3 C-1.34 2.01 -0.68 1.02 0 0 Z " fill="#8D9CBD" transform="translate(438,210)"/>
<path d="M0 0 C0.99 0.33 1.98 0.66 3 1 C1.87895467 2.31587941 0.75303035 3.62760353 -0.375 4.9375 C-1.00148438 5.66839844 -1.62796875 6.39929688 -2.2734375 7.15234375 C-4 9 -4 9 -6 10 C-6 9.01 -6 8.02 -6 7 C-5.34 7 -4.68 7 -4 7 C-3.67 5.35 -3.34 3.7 -3 2 C-2.01 2 -1.02 2 0 2 C0 1.34 0 0.68 0 0 Z " fill="#8988AB" transform="translate(315,165)"/>
<path d="M0 0 C1.32 0 2.64 0 4 0 C4 0.66 4 1.32 4 2 C-2.46008837 3.95021536 -8.2718373 4.22262303 -15 4 C-15 3.67 -15 3.34 -15 3 C-14.00097656 2.86722656 -13.00195312 2.73445313 -11.97265625 2.59765625 C-10.68230469 2.42105469 -9.39195312 2.24445313 -8.0625 2.0625 C-6.77472656 1.88847656 -5.48695313 1.71445312 -4.16015625 1.53515625 C-1.14533687 1.33837577 -1.14533687 1.33837577 0 0 Z " fill="#A95F51" transform="translate(267,367)"/>
<path d="M0 0 C0.33 0.66 0.66 1.32 1 2 C-1.3125 4.5 -1.3125 4.5 -4 7 C-4.99 7 -5.98 7 -7 7 C-5.54744301 3.17053157 -3.57104439 1.87949705 0 0 Z " fill="#AB7B8E" transform="translate(233,256)"/>
<path d="M0 0 C2.33218272 0.84806644 3.44954313 1.8950996 5.0625 3.75 C3.7425 3.75 2.4225 3.75 1.0625 3.75 C1.0625 3.09 1.0625 2.43 1.0625 1.75 C-0.2575 1.75 -1.5775 1.75 -2.9375 1.75 C-2.9375 2.74 -2.9375 3.73 -2.9375 4.75 C-4.2575 4.42 -5.5775 4.09 -6.9375 3.75 C-2.98244382 -0.38483146 -2.98244382 -0.38483146 0 0 Z " fill="#BA95A8" transform="translate(225.9375,244.25)"/>
<path d="M0 0 C3.33333333 1.66666667 6.66666667 3.33333333 10 5 C9.01 5.99 8.02 6.98 7 8 C6.67 7.34 6.34 6.68 6 6 C4.06669397 4.90833725 4.06669397 4.90833725 2 4 C1.34 3.67 0.68 3.34 0 3 C0 2.01 0 1.02 0 0 Z " fill="#89A0BF" transform="translate(445,188)"/>
<path d="M0 0 C3.09592835 3.5087188 4.74194623 6.49197399 6 11 C5.01 11 4.02 11 3 11 C2.71125 10.21625 2.4225 9.4325 2.125 8.625 C1.15087746 5.90328368 1.15087746 5.90328368 -1 4 C-0.625 1.875 -0.625 1.875 0 0 Z " fill="#9396B8" transform="translate(288,135)"/>
<path d="M0 0 C1.32 0 2.64 0 4 0 C2.49776416 4.20626034 -0.28550034 5.73900021 -4 8 C-3.67 6.35 -3.34 4.7 -3 3 C-1.68 3 -0.36 3 1 3 C0.67 2.01 0.34 1.02 0 0 Z " fill="#93759F" transform="translate(352,265)"/>
<path d="M0 0 C0.66 0 1.32 0 2 0 C1.82374165 2.37948772 1.30280227 3.70225849 -0.40234375 5.37890625 C-1.90649092 6.62115486 -3.45129851 7.81376056 -5 9 C-5 7.35 -5 5.7 -5 4 C-3.35 3.67 -1.7 3.34 0 3 C0 2.01 0 1.02 0 0 Z " fill="#80769F" transform="translate(408,249)"/>
<path d="M0 0 C2.75 0.25 2.75 0.25 5 1 C2.75 3.0625 2.75 3.0625 0 5 C-2.3125 4.75 -2.3125 4.75 -4 4 C-2.3125 1.9375 -2.3125 1.9375 0 0 Z " fill="#AA7488" transform="translate(217,248)"/>
<path d="M0 0 C0.66 0 1.32 0 2 0 C2 0.66 2 1.32 2 2 C2.66 2 3.32 2 4 2 C5.38938077 3.96147874 6.7260411 5.96166576 8 8 C5.03 7.505 5.03 7.505 2 7 C1.34 4.69 0.68 2.38 0 0 Z " fill="#937AA1" transform="translate(295,239)"/>
<path d="M0 0 C-0.33 1.32 -0.66 2.64 -1 4 C-3.375 3.6875 -3.375 3.6875 -6 3 C-6.66 2.01 -7.32 1.02 -8 0 C-5.13822943 -1.43088528 -3.06624227 -0.59991697 0 0 Z " fill="#8EABC7" transform="translate(458,187)"/>
<path d="M0 0 C-0.33 0.99 -0.66 1.98 -1 3 C-4.4375 4.125 -4.4375 4.125 -8 5 C-8.99 5.495 -8.99 5.495 -10 6 C-9.75 4.125 -9.75 4.125 -9 2 C-6.04454879 -0.11103658 -3.56144099 -0.19785783 0 0 Z " fill="#5C87AF" transform="translate(474,152)"/>
<path d="M0 0 C1.65 0 3.3 0 5 0 C2.19195732 2.96404505 -0.18315774 5.44499019 -4 7 C-3.67 5.35 -3.34 3.7 -3 2 C-2.01 2 -1.02 2 0 2 C0 1.34 0 0.68 0 0 Z " fill="#BD9093" transform="translate(297,353)"/>
<path d="M0 0 C3.10712212 0.78637041 6.09244107 1.63924116 9 3 C10.5625 5.6875 10.5625 5.6875 11 8 C6.99698968 6.23867546 3.3971023 3.73867517 0 1 C0 0.67 0 0.34 0 0 Z " fill="#BB91A6" transform="translate(230,233)"/>
<path d="M0 0 C7.625 0.875 7.625 0.875 11 2 C9.75 3.5625 9.75 3.5625 8 5 C4.99649894 4.90311287 3.97984316 3.98152289 1.75 1.9375 C1.1725 1.298125 0.595 0.65875 0 0 Z " fill="#A88FAF" transform="translate(289,220)"/>
<path d="M0 0 C0 3.99073753 -1.14604652 6.48388132 -3 10 C-5.6875 11.4375 -5.6875 11.4375 -8 12 C-6.59023295 8.96147295 -4.91129772 6.4060405 -2.875 3.75 C-2.06675781 2.69039062 -2.06675781 2.69039062 -1.2421875 1.609375 C-0.83226562 1.07828125 -0.42234375 0.5471875 0 0 Z " fill="#A0A8C7" transform="translate(421,209)"/>
<path d="M0 0 C1 2 1 2 0.44140625 4.1640625 C0.15136719 4.97617188 -0.13867188 5.78828125 -0.4375 6.625 C-0.72496094 7.44226563 -1.01242187 8.25953125 -1.30859375 9.1015625 C-1.53675781 9.72804687 -1.76492188 10.35453125 -2 11 C-4 8 -4 8 -3.8125 6.0625 C-2.87858188 3.69178476 -1.61172061 1.96209466 0 0 Z " fill="#658FB6" transform="translate(479,151)"/>
<path d="M0 0 C0.93423645 3.01031744 1.04449911 3.86650268 0 7 C-0.99 7 -1.98 7 -3 7 C-3.33 5.02 -3.66 3.04 -4 1 C-2.68 0.67 -1.36 0.34 0 0 Z " fill="#4F3A77" transform="translate(216,143)"/>
<path d="M0 0 C1.24546405 2.49092811 0.7767578 3.41080733 0 6 C-1.32 6 -2.64 6 -4 6 C-4 5.34 -4 4.68 -4 4 C-4.99 4.33 -5.98 4.66 -7 5 C-6.34 3.68 -5.68 2.36 -5 1 C-3.68 1.66 -2.36 2.32 -1 3 C-0.67 2.01 -0.34 1.02 0 0 Z " fill="#A1C0D6" transform="translate(489,138)"/>
<path d="M0 0 C3.43595166 1.52708963 6.11912454 3.59927045 9 6 C7.35 6.33 5.7 6.66 4 7 C2.02 3.535 2.02 3.535 0 0 Z " fill="#A68CB1" transform="translate(262,214)"/>
<path d="M0 0 C1.32 0 2.64 0 4 0 C4 2.97 4 5.94 4 9 C1.49701566 6.06171403 0.53069061 3.82097239 0 0 Z " fill="#BA879D" transform="translate(185,184)"/>
<path d="M0 0 C0.99 0.33 1.98 0.66 3 1 C1.8141763 4.37503669 0.72426311 6.64722731 -2 9 C-2.125 5.625 -2.125 5.625 -2 2 C-1.34 1.34 -0.68 0.68 0 0 Z " fill="#A6809A" transform="translate(312,335)"/>
<path d="M0 0 C0.66 0 1.32 0 2 0 C3.5078125 1.96875 3.5078125 1.96875 5.125 4.5 C5.66382813 5.3353125 6.20265625 6.170625 6.7578125 7.03125 C7.16773438 7.6809375 7.57765625 8.330625 8 9 C6.35 8.67 4.7 8.34 3 8 C2.87625 7.360625 2.7525 6.72125 2.625 6.0625 C2.315625 5.0415625 2.315625 5.0415625 2 4 C1.34 3.67 0.68 3.34 0 3 C0 2.01 0 1.02 0 0 Z " fill="#BF6A51" transform="translate(212,322)"/>
<path d="M0 0 C0.66 0 1.32 0 2 0 C2.66 2.31 3.32 4.62 4 7 C2.35 7.33 0.7 7.66 -1 8 C-0.67 5.36 -0.34 2.72 0 0 Z " fill="#9689B0" transform="translate(292,168)"/>
<path d="M0 0 C0.33 0 0.66 0 1 0 C1.17835515 4.54805635 0.99785435 7.8794254 -1 12 C-1.33 12 -1.66 12 -2 12 C-2.28571429 3.42857143 -2.28571429 3.42857143 0 0 Z " fill="#6F3E81" transform="translate(193,131)"/>
<path d="M0 0 C1.65 0 3.3 0 5 0 C5.33 1.65 5.66 3.3 6 5 C6.66 5 7.32 5 8 5 C7.67 5.66 7.34 6.32 7 7 C5.83040013 6.02433888 4.66438823 5.044375 3.5 4.0625 C2.8503125 3.51722656 2.200625 2.97195313 1.53125 2.41015625 C1.0259375 1.94480469 0.520625 1.47945313 0 1 C0 0.67 0 0.34 0 0 Z " fill="#D98A54" transform="translate(193,348)"/>
<path d="M0 0 C0.99 0 1.98 0 3 0 C4.35439668 2.70879335 4.06501451 5.00933268 4 8 C3.34 8 2.68 8 2 8 C1.34 5.36 0.68 2.72 0 0 Z " fill="#7D3F5C" transform="translate(287,282)"/>
<path d="M0 0 C0.66 0.66 1.32 1.32 2 2 C1.64700993 5.44165321 0.95418308 7.06872538 -1 10 C-1.66 10 -2.32 10 -3 10 C-2.01 6.7 -1.02 3.4 0 0 Z " fill="#A35A5F" transform="translate(214,270)"/>
<path d="M0 0 C0.66 0 1.32 0 2 0 C1.33333333 4.66666667 0.66666667 9.33333333 0 14 C-0.33 14 -0.66 14 -1 14 C-1.02705729 12.22925083 -1.04642195 10.45838289 -1.0625 8.6875 C-1.07410156 7.70136719 -1.08570313 6.71523438 -1.09765625 5.69921875 C-1 3 -1 3 0 0 Z " fill="#6C3E74" transform="translate(333,254)"/>
<path d="M0 0 C2.72426311 2.35277269 3.8141763 4.62496331 5 8 C3.35 7.67 1.7 7.34 0 7 C0 4.69 0 2.38 0 0 Z " fill="#9B7EA6" transform="translate(312,260)"/>
<path d="M0 0 C1.32 0.33 2.64 0.66 4 1 C1.525 4.465 1.525 4.465 -1 8 C-2 4 -2 4 -1.0625 1.75 C-0.711875 1.1725 -0.36125 0.595 0 0 Z " fill="#8987AF" transform="translate(419,234)"/>
<path d="M0 0 C0.99 0 1.98 0 3 0 C2.45773019 3.79588866 0.79872437 5.47211993 -2 8 C-2.20086443 4.28400809 -2.1519437 3.22791555 0 0 Z " fill="#6B4E84" transform="translate(342,229)"/>
<path d="M0 0 C0 0.99 0 1.98 0 3 C-1.75 4.38671875 -1.75 4.38671875 -4 5.6875 C-4.7425 6.12449219 -5.485 6.56148437 -6.25 7.01171875 C-6.8275 7.33785156 -7.405 7.66398438 -8 8 C-8.33 7.34 -8.66 6.68 -9 6 C-6.03 4.02 -3.06 2.04 0 0 Z " fill="#8093BA" transform="translate(430,201)"/>
<path d="M0 0 C1.485 0.99 1.485 0.99 3 2 C3 2.66 3 3.32 3 4 C3.9590625 4.433125 3.9590625 4.433125 4.9375 4.875 C7 6 7 6 8 8 C6.68 8 5.36 8 4 8 C4 7.01 4 6.02 4 5 C2.68 4.67 1.36 4.34 0 4 C0 2.68 0 1.36 0 0 Z " fill="#AB90B4" transform="translate(225,185)"/>
<path d="M0 0 C1.65 0.33 3.3 0.66 5 1 C4.67 1.66 4.34 2.32 4 3 C3.34 3 2.68 3 2 3 C1.67 3.66 1.34 4.32 1 5 C-0.32 5 -1.64 5 -3 5 C-3 4.34 -3 3.68 -3 3 C-2.01 2.67 -1.02 2.34 0 2 C0 1.34 0 0.68 0 0 Z " fill="#A68DB2" transform="translate(306,215)"/>
<path d="M0 0 C0.99 0.66 1.98 1.32 3 2 C-2.2734375 5.22265625 -2.2734375 5.22265625 -4 6 C-4.66 5.67 -5.32 5.34 -6 5 C-6 4.34 -6 3.68 -6 3 C-5.195625 2.690625 -4.39125 2.38125 -3.5625 2.0625 C-1.10919595 1.23664655 -1.10919595 1.23664655 0 0 Z " fill="#8D87AC" transform="translate(306,174)"/>
<path d="M0 0 C1.32 0.33 2.64 0.66 4 1 C3.34 2.32 2.68 3.64 2 5 C0.35 4.67 -1.3 4.34 -3 4 C-2.01 2.68 -1.02 1.36 0 0 Z " fill="#B1C7D3" transform="translate(492,122)"/>
<path d="M0 0 C-0.33 0.66 -0.66 1.32 -1 2 C-3.28515625 2.4140625 -3.28515625 2.4140625 -6.0625 2.625 C-6.98160156 2.69976562 -7.90070313 2.77453125 -8.84765625 2.8515625 C-9.55792969 2.90054687 -10.26820313 2.94953125 -11 3 C-7.24528933 -0.16492205 -4.90567888 -0.28301994 0 0 Z " fill="#D5633C" transform="translate(257,367)"/>
<path d="M0 0 C0.66 0 1.32 0 2 0 C1.67 0.66 1.34 1.32 1 2 C0.67 1.34 0.34 0.68 0 0 Z M-1.625 1.3125 C-1.08875 1.539375 -0.5525 1.76625 0 2 C-6.625 5.125 -6.625 5.125 -10 4 C-4.58461538 0.92307692 -4.58461538 0.92307692 -1.625 1.3125 Z " fill="#A45355" transform="translate(273,337)"/>
<path d="M0 0 C0.99 0 1.98 0 3 0 C3 0.99 3 1.98 3 3 C0.5 5.1875 0.5 5.1875 -2 7 C-2.125 4.625 -2.125 4.625 -2 2 C-1.34 1.34 -0.68 0.68 0 0 Z " fill="#9D93B9" transform="translate(381,230)"/>
<path d="M0 0 C0.99 0.33 1.98 0.66 3 1 C2.45276317 4.37462715 1.9451 6.08235 0 9 C-1.125 2.25 -1.125 2.25 0 0 Z " fill="#9587AE" transform="translate(358,225)"/>
<path d="M0 0 C0.33 1.32 0.66 2.64 1 4 C-1.31 5.32 -3.62 6.64 -6 8 C-4.55746343 4.63408134 -2.66735273 2.48952921 0 0 Z " fill="#9D9FBE" transform="translate(380,208)"/>
<path d="M0 0 C1.32 0.66 2.64 1.32 4 2 C4 2.99 4 3.98 4 5 C0 5 0 5 -3 4 C-2.01 2.68 -1.02 1.36 0 0 Z " fill="#5574A3" transform="translate(440,185)"/>
<path d="M0 0 C2.97 0 5.94 0 9 0 C8.67 0.66 8.34 1.32 8 2 C4.9375 2.625 4.9375 2.625 2 3 C1.34 2.01 0.68 1.02 0 0 Z " fill="#407CB9" transform="translate(470,178)"/>
<path d="M0 0 C-1 3 -1 3 -3.3125 4.25 C-6.16597407 5.04631835 -7.24802325 4.8214856 -10 4 C-8.71086513 3.32845067 -7.41859796 2.66291141 -6.125 2 C-5.40570313 1.62875 -4.68640625 1.2575 -3.9453125 0.875 C-2 0 -2 0 0 0 Z " fill="#B87164" transform="translate(182,269)"/>
<path d="M0 0 C-1 2 -1 2 -3.375 3.25 C-4.674375 3.62125 -4.674375 3.62125 -6 4 C-6.99 3.34 -7.98 2.68 -9 2 C-3.375 -1.125 -3.375 -1.125 0 0 Z " fill="#695589" transform="translate(322,195)"/>
<path d="M0 0 C2 3 2 3 1.6875 5.625 C1 8 1 8 0 9 C-1.66617115 9.04063832 -3.33388095 9.042721 -5 9 C-4.0409375 8.7215625 -4.0409375 8.7215625 -3.0625 8.4375 C-0.57873787 7.05753944 -0.57873787 7.05753944 -0.25 3.375 C-0.1675 2.26125 -0.085 1.1475 0 0 Z " fill="#DEEFF7" transform="translate(474,156)"/>
<path d="M0 0 C0.33 0.66 0.66 1.32 1 2 C0.67 2.99 0.34 3.98 0 5 C-3.5625 6.1875 -3.5625 6.1875 -7 7 C-4.66666667 4.66666667 -2.33333333 2.33333333 0 0 Z " fill="#BB9098" transform="translate(280,328)"/>
<path d="M0 0 C0.33 0 0.66 0 1 0 C1 2.97 1 5.94 1 9 C-0.98 9.99 -0.98 9.99 -3 11 C-2.690625 10.484375 -2.38125 9.96875 -2.0625 9.4375 C-0.70940713 6.33334577 -0.38640576 3.34884993 0 0 Z " fill="#944A6C" transform="translate(292,307)"/>
<path d="M0 0 C0.625 1.875 0.625 1.875 1 4 C0.34 4.66 -0.32 5.32 -1 6 C-1.99 6 -2.98 6 -4 6 C-2.84826645 3.53199953 -1.95216435 1.95216435 0 0 Z " fill="#8B86AD" transform="translate(406,229)"/>
<path d="M0 0 C-2.90600261 1.25664978 -4.79604584 2 -8 2 C-8 1.01 -8 0.02 -8 -1 C-4.59745511 -2.2151946 -3.06748874 -1.86240388 0 0 Z " fill="#917EA7" transform="translate(325,211)"/>
<path d="M0 0 C0.99 0.33 1.98 0.66 3 1 C2.34 1.66 1.68 2.32 1 3 C-0.32 3 -1.64 3 -3 3 C-3 3.66 -3 4.32 -3 5 C-3.99 4.67 -4.98 4.34 -6 4 C-4.03617993 2.49440461 -2.21736634 1.10868317 0 0 Z " fill="#5D8EB5" transform="translate(471,135)"/>
<path d="M0 0 C0.66 0.99 1.32 1.98 2 3 C1.319375 3.61875 1.319375 3.61875 0.625 4.25 C-1.05950374 6.06408095 -1.99265971 7.75285627 -3 10 C-3.33 9.34 -3.66 8.68 -4 8 C-3.22265625 6.0546875 -3.22265625 6.0546875 -2.0625 3.875 C-1.49208984 2.78832031 -1.49208984 2.78832031 -0.91015625 1.6796875 C-0.60980469 1.12539062 -0.30945313 0.57109375 0 0 Z " fill="#C0A3BF" transform="translate(189,127)"/>
<path d="M0 0 C1.485 0.99 1.485 0.99 3 2 C3 2.66 3 3.32 3 4 C1.68 3.67 0.36 3.34 -1 3 C-0.67 2.01 -0.34 1.02 0 0 Z " fill="#EEFAFB" transform="translate(216,317)"/>
<path d="M0 0 C0.66 0.33 1.32 0.66 2 1 C1.67 1.99 1.34 2.98 1 4 C0.34 4 -0.32 4 -1 4 C-0.67 2.68 -0.34 1.36 0 0 Z " fill="#EFFAF8" transform="translate(199,359)"/>
<path d="M0 0 C1.98 0 3.96 0 6 0 C6 0.33 6 0.66 6 1 C4.02 1 2.04 1 0 1 C0 0.67 0 0.34 0 0 Z " fill="#EFFBF8" transform="translate(258,333)"/>
<path d="M0 0 C0.66 0 1.32 0 2 0 C2 0.66 2 1.32 2 2 C1.34 2 0.68 2 0 2 C0 1.34 0 0.68 0 0 Z " fill="#EFFBF9" transform="translate(233,241)"/>
<path d="" fill="#EFFAFE" transform="translate(0,0)"/>
<path d="" fill="#EFF8F6" transform="translate(0,0)"/>
<path d="M0 0 C2 1 2 1 2 1 Z " fill="#F0FCFA" transform="translate(172,267)"/>
<path d="M0 0 C2 1 2 1 2 1 Z " fill="#EFF8F7" transform="translate(286,228)"/>
<path d="M0 0 C2 1 2 1 2 1 Z " fill="#F0FAF1" transform="translate(281,218)"/>
<path d="" fill="#F0FAFA" transform="translate(0,0)"/>
<path d="" fill="#F2EFF4" transform="translate(0,0)"/>
<path d="" fill="#F0FAFF" transform="translate(0,0)"/>
<path d="" fill="#F0F8F5" transform="translate(0,0)"/>
<path d="" fill="#F0F7F4" transform="translate(0,0)"/>
<path d="" fill="#F0FAFA" transform="translate(0,0)"/>
<path d="" fill="#F6F2F0" transform="translate(0,0)"/>
<path d="" fill="#EFF9F7" transform="translate(0,0)"/>
<path d="" fill="#F0FCFA" transform="translate(0,0)"/>
<path d="" fill="#F0F6F3" transform="translate(0,0)"/>
<path d="" fill="#EFF8F7" transform="translate(0,0)"/>
<path d="" fill="#F0FBF7" transform="translate(0,0)"/>
<path d="" fill="#F0F3F6" transform="translate(0,0)"/>
<path d="" fill="#F0F7F5" transform="translate(0,0)"/>
<path d="" fill="#EFF6F6" transform="translate(0,0)"/>
<path d="" fill="#EEF5EF" transform="translate(0,0)"/>
<path d="" fill="#F0F1F8" transform="translate(0,0)"/>
<path d="" fill="#F0F8F5" transform="translate(0,0)"/>
<path d="" fill="#F4F8F0" transform="translate(0,0)"/>
<path d="" fill="#FAF9EE" transform="translate(0,0)"/>
<path d="" fill="#ECF6F4" transform="translate(0,0)"/>
<path d="" fill="#EFF4F2" transform="translate(0,0)"/>
<path d="" fill="#EFF6F1" transform="translate(0,0)"/>
<path d="" fill="#F1F4F0" transform="translate(0,0)"/>
<path d="" fill="#EDF3F0" transform="translate(0,0)"/>
<path d="" fill="#F0F7F7" transform="translate(0,0)"/>
<path d="" fill="#F0F6F7" transform="translate(0,0)"/>
<path d="" fill="#EFFAF6" transform="translate(0,0)"/>
<path d="" fill="#F0F4F6" transform="translate(0,0)"/>
</svg>
